<?xml version="1.0" encoding="UTF-8"?>
<svg fill="none" version="1.1" viewBox="0 0 348 348" xmlns="http://www.w3.org/2000/svg">
 <path d="M5.079 5.776h336.913v337.67H5.08z" stroke="#000" stroke-width="2"/>
 <path d="m282.73 40.554c0-8.376 6.966-15.165 15.56-15.165 4.126 0 8.084 1.597 11.001 4.441 2.918 2.844 4.558 6.702 4.558 10.724 0 8.376-6.966 15.165-15.56 15.165-8.593 0-15.559-6.79-15.559-15.165z" stroke="#000" stroke-width="2"/>
 <g transform="matrix(.5081 0 0 .5081 54.274 139.51)" stroke="#000" stroke-miterlimit="10" stroke-width="2">
  <path d="m-47.508 49.446h78v294h-78zm78 0h78v294h-78zm78 0h78v294h-78z" fill="#fff"/>
  <path d="m185.99 49.446h78v294h-78zm78 0h78v294h-78zm78 0h78v294h-78zm78 0h78v294h-78z" fill="#fff"/>
  <path d="m7.992 49.446h45v161h-45zm78 0h45v161h-45zm155.5 0h45v161h-45zm78 0h45v161h-45zm78 0h45v161h-45z" fill="#231f20"/>
 </g>
 <g fill="none" stroke="#000" stroke-linecap="round">
  <rect x="66.4" y="48.532" width="52.563" height="60.875" stroke-width=".80545"/>
  <g transform="translate(125.01 77.585)" stroke-width="3.4">
   <path d="m-47.021-40.306 14.694-13.181"/>
   <path d="m-17.633-40.306-14.694-13.181"/>
  </g>
  <g transform="matrix(1 0 0 -1 125.01 80.355)" stroke-width="3.4">
   <path d="m-47.021-40.306 14.694-13.181"/>
   <path d="m-17.633-40.306-14.694-13.181"/>
  </g>
 </g>
 <g transform="translate(0 -.67218)" fill="none" stroke="#000" stroke-linecap="round">
  <rect x="164.45" y="49.204" width="52.563" height="60.875" stroke-width=".80545"/>
  <g transform="translate(223.06 78.257)" stroke-width="3.4">
   <path d="m-47.021-40.306 14.694-13.181"/>
   <path d="m-17.633-40.306-14.694-13.181"/>
  </g>
  <g transform="matrix(1 0 0 -1 223.06 81.027)" stroke-width="3.4">
   <path d="m-47.021-40.306 14.694-13.181"/>
   <path d="m-17.633-40.306-14.694-13.181"/>
  </g>
 </g>
 <rect x="241.46" y="83.939" width="80.159" height="30.787" fill="none" stroke="#000" stroke-linecap="round" stroke-linejoin="round" stroke-width=".77701"/>
 <text x="242.63696" y="106.61217" fill="#000000" font-family="sans-serif" font-size="20px" style="font-variant-caps:normal;font-variant-east-asian:normal;font-variant-ligatures:normal;font-variant-numeric:normal;line-height:1.25" xml:space="preserve"><tspan x="242.63696" y="106.61217">SUBMIT</tspan></text>
</svg>
