<?xml version="1.0" encoding="utf-8"?>
<!-- Generator: Adobe Illustrator 26.3.1, SVG Export Plug-In . SVG Version: 6.00 Build 0)  -->
<svg version="1.1" id="レイヤー_1" xmlns="http://www.w3.org/2000/svg" xmlns:xlink="http://www.w3.org/1999/xlink" x="0px"
	 y="0px" viewBox="0 0 348 348" style="enable-background:new 0 0 348 348;" xml:space="preserve">
<style type="text/css">
	.st0{clip-path:url(#SVGID_00000004542546247928849700000002780996937156159143_);}
	.st1{fill-opacity:0;}
	.st2{fill:#FFFFFF;}
	.st3{fill:none;stroke:#000000;stroke-width:2;stroke-linejoin:round;stroke-miterlimit:10;}
	.st4{fill:#FFFFFF;stroke:#000000;stroke-miterlimit:10;}
	.st5{fill:#231815;stroke:#000000;stroke-miterlimit:10;}
	.st6{fill:none;stroke:#000000;stroke-miterlimit:10;}
	.st7{stroke:#000000;stroke-miterlimit:10;}
	.st8{fill:#231815;}
	.st9{opacity:0.28;fill:none;stroke:#000000;stroke-miterlimit:10;}
</style>
<g>
	<defs>
		<rect id="SVGID_1_" width="348" height="348"/>
	</defs>
	<clipPath id="SVGID_00000148656340898140010900000011666940075594423729_">
		<use xlink:href="#SVGID_1_"  style="overflow:visible;"/>
	</clipPath>
	<g style="clip-path:url(#SVGID_00000148656340898140010900000011666940075594423729_);">
		<path class="st1" d="M0,0h348v348H0V0z"/>
		<path class="st2" d="M-6,0h348v348H-6V0z"/>
		<path class="st1" d="M5.1,5.8H342v337.7H5.1L5.1,5.8z"/>
		<path class="st3" d="M5.1,5.8H342v337.7H5.1L5.1,5.8z"/>
		<path class="st2" d="M282.7,40.6L282.7,40.6c0-8.4,7-15.2,15.6-15.2l0,0c4.1,0,8.1,1.6,11,4.4c2.9,2.8,4.6,6.7,4.6,10.7l0,0
			c0,8.4-7,15.2-15.6,15.2l0,0C289.7,55.7,282.7,48.9,282.7,40.6z"/>
		<path class="st3" d="M282.7,40.6L282.7,40.6c0-8.4,7-15.2,15.6-15.2l0,0c4.1,0,8.1,1.6,11,4.4c2.9,2.8,4.6,6.7,4.6,10.7l0,0
			c0,8.4-7,15.2-15.6,15.2l0,0C289.7,55.7,282.7,48.9,282.7,40.6z"/>
	</g>
</g>
<circle class="st4" cx="174" cy="132.3" r="112.9"/>
<rect x="23" y="251.9" class="st4" width="308" height="87.6"/>
<rect x="52.1" y="251.9" class="st5" width="22.7" height="54.7"/>
<rect x="93.9" y="251.9" class="st5" width="22.7" height="54.7"/>
<rect x="280.1" y="251.9" class="st5" width="22.7" height="54.7"/>
<rect x="230.1" y="251.9" class="st5" width="22.7" height="54.7"/>
<rect x="180.1" y="251.9" class="st5" width="22.7" height="54.7"/>
<line class="st6" x1="63.4" y1="306.6" x2="63.4" y2="339.4"/>
<line class="st6" x1="105.2" y1="306.6" x2="105.2" y2="339.4"/>
<line class="st6" x1="151.7" y1="251.9" x2="150.8" y2="339.4"/>
<line class="st6" x1="193.7" y1="306.6" x2="193.7" y2="339.4"/>
<line class="st6" x1="241.4" y1="306.6" x2="241.4" y2="339.4"/>
<line class="st6" x1="291.4" y1="306.6" x2="291.4" y2="339.4"/>
<ellipse transform="matrix(0.866 -0.5 0.5 0.866 -68.2765 136.9664)" class="st5" cx="221.4" cy="195.9" rx="8.7" ry="7.1"/>
<ellipse transform="matrix(0.962 -0.2729 0.2729 0.962 -34.6198 27.7826)" class="st7" cx="82.6" cy="138.3" rx="7.1" ry="8.7"/>
<ellipse transform="matrix(0.6014 -0.7989 0.7989 0.6014 -102.5226 171.2087)" class="st5" cx="120.3" cy="188.4" rx="7.1" ry="8.7"/>
<ellipse transform="matrix(0.866 -0.5 0.5 0.866 -14.8827 70.9015)" class="st5" cx="124.9" cy="63.2" rx="8.7" ry="7.1"/>
<ellipse transform="matrix(0.1261 -0.992 0.992 0.1261 -66.8175 351.6538)" class="st5" cx="166.2" cy="213.8" rx="7.1" ry="8.7"/>
<ellipse transform="matrix(0.7557 -0.6549 0.6549 0.7557 -0.7567 180.4159)" class="st5" cx="241.4" cy="91.2" rx="7.1" ry="8.7"/>
<g id="XMLID_00000041976991666859095570000018183734309666200226_">
	<g>
		<path class="st8" d="M192.2,43.7c-0.8,1.3-1,2.8-0.7,4.3l-0.1,0L174,39.9L192.2,43.7z"/>
		<path class="st8" d="M203.3,41.9c4.1,2.4,5.9,7.1,3.9,10.5c-2,3.4-6.9,4.2-11.1,1.8c-2.6-1.5-4.2-3.8-4.6-6.2
			c-0.3-1.5-0.1-3,0.7-4.3C194.2,40.3,199.2,39.5,203.3,41.9z"/>
	</g>
	<g>
		<path class="st6" d="M192.2,43.7c2-3.4,6.9-4.2,11.1-1.8c4.1,2.4,5.9,7.1,3.9,10.5c-2,3.4-6.9,4.2-11.1,1.8
			c-2.6-1.5-4.2-3.8-4.6-6.2C191.3,46.5,191.5,45,192.2,43.7z"/>
		<line class="st6" x1="192.2" y1="43.7" x2="174" y2="39.9"/>
		<line class="st6" x1="191.4" y1="48" x2="174" y2="39.9"/>
	</g>
</g>
<g id="XMLID_00000095310556038453512110000017545342086898232750_">
	<g>
		<polygon points="116.9,66.5 120.3,70.1 105.2,81.2 116.3,66.1 		"/>
	</g>
	<g>
		<polyline class="st6" points="116.6,65.7 116.3,66.1 105.2,81.2 		"/>
		<line class="st6" x1="120.3" y1="70.1" x2="105.2" y2="81.2"/>
		<line class="st6" x1="120.3" y1="70.1" x2="116.9" y2="66.5"/>
	</g>
</g>
<g id="XMLID_00000067207324938280691350000007216818125634110871_">
	<g>
		<polygon points="88.2,144.4 91.4,157.2 82.6,146.8 		"/>
	</g>
	<g>
		<line class="st6" x1="91.4" y1="157.2" x2="82.6" y2="146.8"/>
		<line class="st6" x1="88.2" y1="144.4" x2="91.4" y2="157.2"/>
		<line class="st6" x1="88.2" y1="144.4" x2="82.6" y2="146.8"/>
	</g>
</g>
<line class="st6" x1="191.4" y1="48.1" x2="192.2" y2="43.7"/>
<g id="XMLID_00000030467629666692933560000005279654528313352102_">
	<g>
		<polygon points="237.8,83.5 233.7,88.9 221.4,71 		"/>
	</g>
	<g>
		<line class="st6" x1="237.8" y1="83.5" x2="221.4" y2="71"/>
		<line class="st6" x1="233.7" y1="88.9" x2="221.4" y2="71"/>
		<line class="st6" x1="233.7" y1="88.9" x2="237.8" y2="83.5"/>
	</g>
</g>
<g id="XMLID_00000095335500360939997700000000411810023530403503_">
	<g>
		<polygon points="238.6,180.3 228.9,191.6 225.4,188.8 		"/>
		<polygon points="189.2,213.8 174,217.1 174,211 		"/>
	</g>
	<g>
		<line class="st6" x1="174" y1="217.1" x2="189.2" y2="213.8"/>
		<line class="st6" x1="174" y1="211" x2="189.2" y2="213.8"/>
		<line class="st6" x1="225.4" y1="188.8" x2="238.6" y2="180.3"/>
		<line class="st6" x1="228.9" y1="191.6" x2="238.6" y2="180.3"/>
		<line class="st6" x1="228.9" y1="191.6" x2="225.4" y2="188.8"/>
		<line class="st6" x1="174" y1="217.1" x2="174" y2="211"/>
	</g>
</g>
<g id="XMLID_00000147942079915383298120000004475446348538048685_">
	<g>
		<polygon points="127.3,193.6 135.9,203 124.9,195.9 		"/>
	</g>
	<g>
		<line class="st6" x1="135.9" y1="203" x2="124.9" y2="195.9"/>
		<line class="st6" x1="127.3" y1="193.6" x2="135.9" y2="203"/>
		<line class="st6" x1="124.9" y1="195.9" x2="127.3" y2="193.6"/>
	</g>
</g>
<circle class="st9" cx="173.7" cy="132.3" r="94.5"/>
<circle class="st9" cx="174" cy="131.8" r="82.9"/>
<circle class="st9" cx="174" cy="132.3" r="71.4"/>
<circle class="st9" cx="174" cy="131.8" r="60.6"/>
<circle class="st9" cx="174" cy="131.8" r="50.5"/>
</svg>
