<?xml version="1.0" encoding="UTF-8"?>
<svg width="100mm" height="138mm" version="1.1" viewBox="0 0 100 138" xmlns="http://www.w3.org/2000/svg" xmlns:cc="http://creativecommons.org/ns#" xmlns:dc="http://purl.org/dc/elements/1.1/" xmlns:rdf="http://www.w3.org/1999/02/22-rdf-syntax-ns#">
 <metadata>
  <rdf:RDF>
   <cc:Work rdf:about="">
    <dc:format>image/svg+xml</dc:format>
    <dc:type rdf:resource="http://purl.org/dc/dcmitype/StillImage"/>
    <dc:title/>
   </cc:Work>
  </rdf:RDF>
 </metadata>
 <g stroke-width=".26458">
  <text x="4.6409383" y="6.5424743" font-family="'Special Elite', sans-serif" font-size="4.7625px" text-anchor="middle"><tspan stroke-width=".26458">イ</tspan></text>
  <circle cx="10.991" cy="5.4841" r="1.0583"/>
  <rect x="14.166" y="4.4258" width="6.35" height="2.1167"/>
  <text x="4.6409383" y="11.834141" font-family="'Special Elite', sans-serif" font-size="4.7625px" text-anchor="middle"><tspan stroke-width=".26458">ロ</tspan></text>
  <rect x="14.209" y="9.7175" width="6.35" height="2.1167"/>
  <circle cx="10.905" cy="10.776" r="1.0583"/>
  <circle cx="23.691" cy="10.776" r="1.0583"/>
  <text x="4.6409383" y="17.125807" font-family="'Special Elite', sans-serif" font-size="4.7625px" text-anchor="middle"><tspan stroke-width=".26458">ハ</tspan></text>
  <rect x="9.9326" y="15.009" width="6.35" height="2.1167"/>
  <circle cx="19.458" cy="16.067" r="1.0583"/>
  <circle cx="27.748" cy="16.067" r="1.0583"/>
  <text x="4.6409383" y="22.417475" font-family="'Special Elite', sans-serif" font-size="4.7625px" text-anchor="middle"><tspan stroke-width=".26458">ニ</tspan></text>
  <rect x="9.9326" y="20.301" width="6.35" height="2.1167"/>
  <circle cx="19.458" cy="21.359" r="1.0583"/>
  <circle cx="31.575" cy="21.359" r="1.0583"/>
  <text x="4.6409383" y="27.709141" font-family="'Special Elite', sans-serif" font-size="4.7625px" text-anchor="middle"><tspan stroke-width=".26458">ホ</tspan></text>
  <circle cx="19.41" cy="26.651" r="1.0583"/>
  <text x="4.6409383" y="33.000809" font-family="'Special Elite', sans-serif" font-size="4.7625px" text-anchor="middle"><tspan stroke-width=".26458">ヘ</tspan></text>
  <circle cx="10.991" cy="31.942" r="1.0583"/>
  <text x="4.6409383" y="38.292473" font-family="'Special Elite', sans-serif" font-size="4.7625px" text-anchor="middle"><tspan stroke-width=".26458">ト</tspan></text>
  <rect x="18.399" y="36.176" width="6.35" height="2.1167"/>
  <circle cx="27.924" cy="37.234" r="1.0583"/>
  <g font-family="'Special Elite', sans-serif" font-size="4.7625px" text-anchor="middle">
   <text x="4.6409383" y="43.584141"><tspan stroke-width=".26458">チ</tspan></text>
   <text x="4.6409383" y="48.875809"><tspan stroke-width=".26458">リ</tspan></text>
   <text x="4.6409383" y="54.167473"><tspan stroke-width=".26458">ヌ</tspan></text>
   <text x="4.6409383" y="59.459141"><tspan stroke-width=".26458">ル</tspan></text>
  </g>
  <rect x="9.9326" y="57.342" width="6.35" height="2.1167"/>
  <circle cx="19.458" cy="58.401" r="1.0583"/>
  <rect x="22.633" y="57.342" width="6.35" height="2.1167"/>
  <g font-family="'Special Elite', sans-serif" font-size="4.7625px" text-anchor="middle">
   <text x="4.6409383" y="64.750809"><tspan stroke-width=".26458">ヲ</tspan></text>
   <text x="4.6409383" y="70.042473"><tspan stroke-width=".26458">ワ</tspan></text>
   <text x="4.6409383" y="75.334137"><tspan stroke-width=".26458">カ</tspan></text>
   <text x="4.6409383" y="80.625809"><tspan stroke-width=".26458">ヨ</tspan></text>
  </g>
  <rect x="9.9326" y="78.509" width="6.35" height="2.1167"/>
  <rect x="18.399" y="78.509" width="6.35" height="2.1167"/>
  <text x="4.6409383" y="85.917473" font-family="'Special Elite', sans-serif" font-size="4.7625px" text-anchor="middle"><tspan stroke-width=".26458">タ</tspan></text>
  <rect x="9.9373" y="83.801" width="6.35" height="2.1167"/>
  <circle cx="19.462" cy="84.859" r="1.0583"/>
  <text x="4.6409383" y="91.209137" font-family="'Special Elite', sans-serif" font-size="4.7625px" text-anchor="middle"><tspan stroke-width=".26458">レ</tspan></text>
  <text x="4.6409383" y="96.500809" font-family="'Special Elite', sans-serif" font-size="4.7625px" text-anchor="middle"><tspan stroke-width=".26458">ソ</tspan></text>
  <circle cx="36.386" cy="95.175" r="1.0583"/>
  <text x="4.6409383" y="101.79247" font-family="'Special Elite', sans-serif" font-size="4.7625px" text-anchor="middle"><tspan stroke-width=".26458">ツ</tspan></text>
  <circle cx="10.991" cy="100.73" r="1.0583"/>
  <text x="4.6409383" y="107.08414" font-family="'Special Elite', sans-serif" font-size="4.7625px" text-anchor="middle"><tspan stroke-width=".26458">ネ</tspan></text>
  <text x="4.8820405" y="112.27775" font-family="'Special Elite', sans-serif" font-size="4.7625px" text-anchor="middle"><tspan stroke-width=".26458">ナ</tspan></text>
  <circle cx="11.232" cy="111.22" r="1.0583"/>
  <circle cx="24.018" cy="111.22" r="1.0583"/>
  <rect x="14.498" y="110.16" width="6.35" height="2.1167"/>
  <text x="4.8820405" y="117.56942" font-family="'Special Elite', sans-serif" font-size="4.7625px" text-anchor="middle"><tspan stroke-width=".26458">ラ</tspan></text>
  <circle cx="11.232" cy="116.51" r="1.0583"/>
  <circle cx="15.465" cy="116.51" r="1.0583"/>
  <circle cx="19.699" cy="116.51" r="1.0583"/>
  <text x="4.8820405" y="122.86109" font-family="'Special Elite', sans-serif" font-size="4.7625px" text-anchor="middle"><tspan stroke-width=".26458">ム</tspan></text>
  <rect x="10.398" y="120.74" width="6.35" height="2.1167"/>
  <text x="4.8820405" y="128.15274" font-family="'Special Elite', sans-serif" font-size="4.7625px" text-anchor="middle"><tspan stroke-width=".26458">ウ</tspan></text>
  <circle cx="11.547" cy="127.09" r="1.0583"/>
  <circle cx="15.78" cy="127.09" r="1.0583"/>
  <rect x="18.955" y="126.04" width="6.35" height="2.1167"/>
  <g font-family="'Special Elite', sans-serif" font-size="4.7625px" text-anchor="middle">
   <text x="4.8820405" y="133.44441"><tspan stroke-width=".26458">ヰ</tspan></text>
   <text x="55.045403" y="112.10315"><tspan stroke-width=".26458">セ</tspan></text>
   <text x="55.045403" y="117.39486"><tspan stroke-width=".26458">ス</tspan></text>
  </g>
  <circle cx="61.395" cy="116.34" r="1.0583"/>
  <circle cx="65.629" cy="116.34" r="1.0583"/>
  <circle cx="69.862" cy="116.34" r="1.0583"/>
  <rect x="73.037" y="115.28" width="6.35" height="2.1167"/>
  <text x="55.045403" y="122.68651" font-family="'Special Elite', sans-serif" font-size="4.7625px" text-anchor="middle"><tspan stroke-width=".26458">ン</tspan></text>
  <circle cx="61.395" cy="121.63" r="1.0583"/>
  <rect x="64.57" y="120.57" width="6.35" height="2.1167"/>
  <g font-family="'Special Elite', sans-serif" font-size="4.7625px" text-anchor="middle">
   <text x="55.038403" y="6.1710658"><tspan stroke-width=".26458">ノ</tspan></text>
   <text x="55.038403" y="11.462731"><tspan stroke-width=".26458">オ</tspan></text>
   <text x="55.038403" y="16.754398"><tspan stroke-width=".26458">ク</tspan></text>
   <text x="55.038403" y="22.046066"><tspan stroke-width=".26458">ヤ</tspan></text>
   <text x="55.038403" y="27.337732"><tspan stroke-width=".26458">マ</tspan></text>
   <text x="55.038403" y="32.629402"><tspan stroke-width=".26458">ケ</tspan></text>
   <text x="55.038403" y="37.921066"><tspan stroke-width=".26458">フ</tspan></text>
  </g>
  <rect x="60.33" y="35.804" width="6.35" height="2.1167"/>
  <rect x="68.797" y="35.804" width="6.35" height="2.1167"/>
  <circle cx="78.322" cy="36.863" r="1.0583"/>
  <g font-family="'Special Elite', sans-serif" font-size="4.7625px" text-anchor="middle">
   <text x="55.038403" y="43.212734"><tspan stroke-width=".26458">コ</tspan></text>
   <text x="55.038403" y="48.504402"><tspan stroke-width=".26458">エ</tspan></text>
   <text x="55.038403" y="53.796066"><tspan stroke-width=".26458">テ</tspan></text>
   <text x="55.038403" y="59.087734"><tspan stroke-width=".26458">ア</tspan></text>
   <text x="55.038403" y="64.379402"><tspan stroke-width=".26458">サ</tspan></text>
   <text x="55.038403" y="69.671066"><tspan stroke-width=".26458">キ</tspan></text>
  </g>
  <rect x="60.33" y="67.554" width="6.35" height="2.1167"/>
  <text x="55.038403" y="74.962738" font-family="'Special Elite', sans-serif" font-size="4.7625px" text-anchor="middle"><tspan stroke-width=".26458">ユ</tspan></text>
  <rect x="60.33" y="72.846" width="6.35" height="2.1167"/>
  <text x="55.038403" y="80.254402" font-family="'Special Elite', sans-serif" font-size="4.7625px" text-anchor="middle"><tspan stroke-width=".26458">メ</tspan></text>
  <rect x="60.33" y="78.138" width="6.35" height="2.1167"/>
  <text x="55.038403" y="85.546066" font-family="'Special Elite', sans-serif" font-size="4.7625px" text-anchor="middle"><tspan stroke-width=".26458">ミ</tspan></text>
  <text x="55.038403" y="90.837738" font-family="'Special Elite', sans-serif" font-size="4.7625px" text-anchor="middle"><tspan stroke-width=".26458">シ</tspan></text>
  <rect x="60.33" y="88.721" width="6.35" height="2.1167"/>
  <rect x="68.797" y="88.721" width="6.35" height="2.1167"/>
  <circle cx="78.322" cy="89.779" r="1.0583"/>
  <rect x="81.497" y="88.721" width="6.35" height="2.1167"/>
  <text x="55.038403" y="96.129402" font-family="'Special Elite', sans-serif" font-size="4.7625px" text-anchor="middle"><tspan stroke-width=".26458">ヱ</tspan></text>
  <circle cx="61.388" cy="95.071" r="1.0583"/>
  <rect x="64.563" y="94.013" width="6.35" height="2.1167"/>
  <text x="55.038403" y="101.42107" font-family="'Special Elite', sans-serif" font-size="4.7625px" text-anchor="middle"><tspan stroke-width=".26458">ヒ</tspan></text>
  <text x="55.038403" y="106.71274" font-family="'Special Elite', sans-serif" font-size="4.7625px" text-anchor="middle"><tspan stroke-width=".26458">モ</tspan></text>
  <rect x="60.33" y="104.6" width="6.35" height="2.1167"/>
  <circle cx="23.52" cy="10.691" r="1.0583"/>
  <rect x="26.492" y="9.7661" width="6.35" height="2.1167"/>
  <circle cx="23.52" cy="16.036" r="1.0583"/>
  <rect x="22.483" y="20.457" width="6.35" height="2.1167"/>
  <rect x="10.055" y="25.669" width="6.35" height="2.1167"/>
  <circle cx="23.52" cy="26.727" r="1.0583"/>
  <circle cx="10.98" cy="37.284" r="1.0583"/>
  <circle cx="15.213" cy="37.284" r="1.0583"/>
  <circle cx="31.671" cy="37.284" r="1.0583"/>
  <rect x="18.458" y="41.145" width="6.35" height="2.1167"/>
  <circle cx="27.983" cy="42.204" r="1.0583"/>
  <circle cx="11.038" cy="42.254" r="1.0583"/>
  <circle cx="15.272" cy="42.254" r="1.0583"/>
  <rect x="10.119" y="46.115" width="6.35" height="2.1167"/>
  <rect x="18.586" y="46.115" width="6.35" height="2.1167"/>
  <circle cx="28.111" cy="47.173" r="1.0583"/>
  <circle cx="11.131" cy="52.539" r="1.0583"/>
  <circle cx="15.365" cy="52.539" r="1.0583"/>
  <circle cx="19.598" cy="52.539" r="1.0583"/>
  <circle cx="23.831" cy="52.539" r="1.0583"/>
  <rect x="31.202" y="57.339" width="6.35" height="2.1167"/>
  <circle cx="40.595" cy="58.397" r="1.0583"/>
  <circle cx="11.087" cy="63.477" r="1.0583"/>
  <rect x="14.262" y="62.418" width="6.35" height="2.1167"/>
  <rect x="22.729" y="62.418" width="6.35" height="2.1167"/>
  <rect x="31.195" y="62.418" width="6.35" height="2.1167"/>
  <rect x="10.016" y="67.639" width="6.35" height="2.1167"/>
  <circle cx="19.541" cy="68.697" r="1.0583"/>
  <rect x="22.811" y="67.639" width="6.35" height="2.1167"/>
  <circle cx="10.98" cy="73.989" r="1.0583"/>
  <rect x="14.155" y="72.931" width="6.35" height="2.1167"/>
  <circle cx="23.869" cy="73.894" r="1.0583"/>
  <circle cx="28.103" cy="73.894" r="1.0583"/>
  <rect x="10.007" y="88.744" width="6.35" height="2.1167"/>
  <rect x="18.474" y="88.744" width="6.35" height="2.1167"/>
  <rect x="26.94" y="88.744" width="6.35" height="2.1167"/>
  <rect x="10.007" y="94.09" width="6.35" height="2.1167"/>
  <rect x="18.474" y="94.09" width="6.35" height="2.1167"/>
  <rect x="26.94" y="94.09" width="6.35" height="2.1167"/>
  <circle cx="32.08" cy="100.77" r="1.0583"/>
  <rect x="14.168" y="99.689" width="6.35" height="2.1167"/>
  <rect x="22.635" y="99.689" width="6.35" height="2.1167"/>
  <rect x="10.162" y="104.65" width="6.35" height="2.1167"/>
  <rect x="18.629" y="104.65" width="6.35" height="2.1167"/>
  <circle cx="28.154" cy="105.71" r="1.0583"/>
  <rect x="31.329" y="104.65" width="6.35" height="2.1167"/>
  <rect x="14.869" y="131.48" width="6.35" height="2.1167"/>
  <circle cx="24.394" cy="132.54" r="1.0583"/>
  <circle cx="11.682" cy="132.59" r="1.0583"/>
  <circle cx="28.141" cy="132.59" r="1.0583"/>
  <rect x="31.036" y="131.51" width="6.35" height="2.1167"/>
  <circle cx="61.403" cy="5.2118" r="1.0583"/>
  <circle cx="65.636" cy="5.2118" r="1.0583"/>
  <rect x="68.811" y="4.1319" width="6.35" height="2.1167"/>
  <rect x="77.278" y="4.1319" width="6.35" height="2.1167"/>
  <rect x="64.694" y="9.311" width="6.35" height="2.1167"/>
  <circle cx="74.219" cy="10.369" r="1.0583"/>
  <circle cx="61.507" cy="10.419" r="1.0583"/>
  <circle cx="77.966" cy="10.419" r="1.0583"/>
  <circle cx="81.643" cy="10.394" r="1.0583"/>
  <circle cx="61.459" cy="15.497" r="1.0583"/>
  <circle cx="65.692" cy="15.497" r="1.0583"/>
  <circle cx="69.926" cy="15.497" r="1.0583"/>
  <rect x="73.101" y="14.439" width="6.35" height="2.1167"/>
  <circle cx="61.459" cy="20.789" r="1.0583"/>
  <rect x="64.634" y="19.73" width="6.35" height="2.1167"/>
  <rect x="73.101" y="19.73" width="6.35" height="2.1167"/>
  <rect x="60.419" y="25.258" width="6.35" height="2.1167"/>
  <circle cx="69.822" cy="26.293" r="1.0583"/>
  <circle cx="74.055" cy="26.293" r="1.0583"/>
  <rect x="77.23" y="25.234" width="6.35" height="2.1167"/>
  <rect x="60.495" y="30.219" width="6.35" height="2.1167"/>
  <circle cx="70.02" cy="31.278" r="1.0583"/>
  <rect x="73.195" y="30.219" width="6.35" height="2.1167"/>
  <rect x="81.538" y="30.219" width="6.35" height="2.1167"/>
  <circle cx="82.327" cy="36.891" r="1.0583"/>
  <rect x="60.454" y="40.903" width="6.35" height="2.1167"/>
  <rect x="68.921" y="40.903" width="6.35" height="2.1167"/>
  <rect x="77.388" y="40.903" width="6.35" height="2.1167"/>
  <rect x="85.558" y="40.903" width="6.35" height="2.1167"/>
  <rect x="60.415" y="46.332" width="6.35" height="2.1167"/>
  <circle cx="69.94" cy="47.391" r="1.0583"/>
  <rect x="73.115" y="46.332" width="6.35" height="2.1167"/>
  <rect x="81.685" y="46.329" width="6.35" height="2.1167"/>
  <rect x="90.185" y="46.33" width="6.35" height="2.1167"/>
  <circle cx="61.454" cy="52.822" r="1.0583"/>
  <circle cx="74.24" cy="52.822" r="1.0583"/>
  <rect x="64.719" y="51.764" width="6.35" height="2.1167"/>
  <rect x="77.299" y="51.66" width="6.35" height="2.1167"/>
  <rect x="85.8" y="51.661" width="6.35" height="2.1167"/>
  <rect x="60.419" y="56.678" width="6.35" height="2.1167"/>
  <rect x="68.886" y="56.678" width="6.35" height="2.1167"/>
  <circle cx="78.411" cy="57.736" r="1.0583"/>
  <rect x="81.586" y="56.678" width="6.35" height="2.1167"/>
  <rect x="90.02" y="56.678" width="6.35" height="2.1167"/>
  <rect x="60.478" y="61.806" width="6.35" height="2.1167"/>
  <circle cx="70.003" cy="62.864" r="1.0583"/>
  <circle cx="82.121" cy="62.864" r="1.0583"/>
  <rect x="73.028" y="61.962" width="6.35" height="2.1167"/>
  <rect x="85.024" y="61.884" width="6.35" height="2.1167"/>
  <circle cx="70.046" cy="68.543" r="1.0583"/>
  <circle cx="82.164" cy="68.543" r="1.0583"/>
  <rect x="73.071" y="67.641" width="6.35" height="2.1167"/>
  <circle cx="86.372" cy="68.521" r="1.0583"/>
  <circle cx="70.089" cy="73.9" r="1.0583"/>
  <circle cx="74.322" cy="73.9" r="1.0583"/>
  <rect x="77.497" y="72.842" width="6.35" height="2.1167"/>
  <rect x="85.959" y="72.842" width="6.35" height="2.1167"/>
  <circle cx="70.111" cy="79.045" r="1.0583"/>
  <circle cx="74.344" cy="79.045" r="1.0583"/>
  <circle cx="78.577" cy="79.045" r="1.0583"/>
  <rect x="81.752" y="77.987" width="6.35" height="2.1167"/>
  <circle cx="61.402" cy="84.561" r="1.0583"/>
  <circle cx="65.636" cy="84.561" r="1.0583"/>
  <rect x="68.811" y="83.502" width="6.35" height="2.1167"/>
  <circle cx="78.487" cy="84.457" r="1.0583"/>
  <rect x="81.662" y="83.399" width="6.35" height="2.1167"/>
  <circle cx="91.14" cy="89.746" r="1.0583"/>
  <circle cx="82.343" cy="95.023" r="1.0583"/>
  <rect x="72.987" y="94.041" width="6.35" height="2.1167"/>
  <circle cx="86.452" cy="95.099" r="1.0583"/>
  <rect x="60.368" y="99.287" width="6.35" height="2.1167"/>
  <rect x="68.834" y="99.287" width="6.35" height="2.1167"/>
  <circle cx="78.359" cy="100.35" r="1.0583"/>
  <circle cx="82.365" cy="100.37" r="1.0583"/>
  <rect x="85.425" y="99.235" width="6.35" height="2.1167"/>
  <rect x="77.257" y="104.49" width="6.35" height="2.1167"/>
  <circle cx="86.782" cy="105.55" r="1.0583"/>
  <circle cx="69.838" cy="105.6" r="1.0583"/>
  <circle cx="74.071" cy="105.6" r="1.0583"/>
  <circle cx="86.675" cy="111.11" r="1.0583"/>
  <rect x="60.296" y="110.03" width="6.35" height="2.1167"/>
  <rect x="68.762" y="110.03" width="6.35" height="2.1167"/>
  <rect x="77.229" y="110.03" width="6.35" height="2.1167"/>
  <rect x="89.807" y="110.02" width="6.35" height="2.1167"/>
  <circle cx="74.122" cy="121.53" r="1.0583"/>
  <circle cx="86.24" cy="121.53" r="1.0583"/>
  <rect x="77.147" y="120.63" width="6.35" height="2.1167"/>
 </g>
 <text fill="#000000" font-family="sans-serif" font-size="10.583px" style="line-height:1.25;shape-inside:url(#rect2034);white-space:pre" xml:space="preserve"/>
</svg>
