<?xml version="1.0" encoding="UTF-8" standalone="no"?>
<svg
   viewBox="0 0 348 348"
   fill="none"
   stroke-linecap="square"
   stroke-miterlimit="10"
   version="1.1"
   id="svg883"
   sodipodi:docname="Topology Memory.svg"
   inkscape:version="1.1.2 (b8e25be8, 2022-02-05)"
   xmlns:inkscape="http://www.inkscape.org/namespaces/inkscape"
   xmlns:sodipodi="http://sodipodi.sourceforge.net/DTD/sodipodi-0.dtd"
   xmlns="http://www.w3.org/2000/svg"
   xmlns:svg="http://www.w3.org/2000/svg">
  <defs
     id="defs887">
    <inkscape:perspective
       sodipodi:type="inkscape:persp3d"
       inkscape:vp_x="0 : 174 : 1"
       inkscape:vp_y="0 : 1000 : 0"
       inkscape:vp_z="348 : 174 : 1"
       inkscape:persp3d-origin="174 : 116 : 1"
       id="perspective1145" />
  </defs>
  <sodipodi:namedview
     id="namedview885"
     pagecolor="#ffffff"
     bordercolor="#666666"
     borderopacity="1.0"
     inkscape:pageshadow="2"
     inkscape:pageopacity="0.0"
     inkscape:pagecheckerboard="0"
     showgrid="false"
     inkscape:zoom="1.795977"
     inkscape:cx="210.7488"
     inkscape:cy="174"
     inkscape:window-width="1440"
     inkscape:window-height="847"
     inkscape:window-x="0"
     inkscape:window-y="25"
     inkscape:window-maximized="0"
     inkscape:current-layer="g881" />
  <clipPath
     id="a">
    <path
       d="M0 0h348v348H0V0z"
       id="path824" />
  </clipPath>
  <g
     clip-path="url(#a)"
     id="g881">
    <path
       d="M 0,0 H 348 V 348 H 0 Z"
       id="path827" />
    <path
       fill="#ffffff"
       d="M -6,0 H 342 V 347.97 H -6 Z"
       id="path829" />
    <path
       d="M 5.08,5.78 H 341.99 V 343.45 H 5.08 Z"
       id="path831" />
    <path
       stroke="#000000"
       stroke-width="2"
       stroke-linejoin="round"
       stroke-linecap="butt"
       d="M 5.08,5.78 H 341.99 V 343.45 H 5.08 Z"
       id="path833" />
    <path
       fill="#ffffff"
       d="m 282.73,40.55 c 0,-8.37 6.97,-15.16 15.56,-15.16 4.13,0 8.09,1.6 11,4.44 a 14.97,14.97 0 0 1 4.56,10.72 c 0,8.38 -6.96,15.17 -15.56,15.17 -8.59,0 -15.56,-6.8 -15.56,-15.17 z"
       id="path835" />
    <path
       stroke="#000000"
       stroke-width="2"
       stroke-linejoin="round"
       stroke-linecap="butt"
       d="m 282.73,40.55 c 0,-8.37 6.97,-15.16 15.56,-15.16 4.13,0 8.09,1.6 11,4.44 a 14.97,14.97 0 0 1 4.56,10.72 c 0,8.38 -6.96,15.17 -15.56,15.17 -8.59,0 -15.56,-6.8 -15.56,-15.17 z"
       id="path837" />
    <path
       fill="#000000"
       d="M 29.35,71.95 H 254.68 V 207.26 H 29.34 Z"
       id="path839" />
    <path
       d="m 29.35,211.62 h 49.26 v 70.3 H 29.35 Z"
       id="path843" />
    <path
       stroke="#000000"
       stroke-linejoin="round"
       stroke-linecap="butt"
       d="m 29.35,211.62 h 49.26 v 70.3 H 29.35 Z"
       id="path845" />
    <path
       fill="#000000"
       d="m 57,251.34 h -2.8 v -17.92 q -1.02,0.97 -2.68,1.94 -1.64,0.97 -2.95,1.45 v -2.72 q 2.36,-1.1 4.12,-2.69 1.77,-1.57 2.5,-3.06 h 1.82 v 23 z"
       id="path847" />
    <path
       d="m 85.34,211.62 h 49.26 v 70.3 H 85.34 Z"
       id="path849" />
    <path
       stroke="#000000"
       stroke-linejoin="round"
       stroke-linecap="butt"
       d="m 85.34,211.62 h 49.26 v 70.3 H 85.34 Z"
       id="path851" />
    <path
       fill="#000000"
       d="m 102.42,245.3 2.8,-0.38 q 0.5,2.39 1.65,3.45 1.17,1.05 2.84,1.05 1.99,0 3.35,-1.38 1.37,-1.37 1.37,-3.4 0,-1.94 -1.26,-3.19 -1.27,-1.26 -3.22,-1.26 -0.8,0 -1.99,0.3 l 0.32,-2.46 q 0.28,0.03 0.45,0.03 1.8,0 3.23,-0.94 1.44,-0.93 1.44,-2.89 0,-1.54 -1.05,-2.56 -1.04,-1.01 -2.7,-1.01 -1.64,0 -2.73,1.03 -1.1,1.03 -1.41,3.09 l -2.81,-0.5 q 0.51,-2.83 2.34,-4.37 1.83,-1.57 4.55,-1.57 1.87,0 3.45,0.82 1.58,0.8 2.4,2.18 0.85,1.4 0.85,2.96 0,1.48 -0.8,2.7 -0.8,1.22 -2.36,1.94 2.04,0.47 3.16,1.95 1.13,1.47 1.13,3.69 0,3 -2.2,5.09 -2.18,2.08 -5.52,2.08 -3.02,0 -5.02,-1.8 -1.98,-1.8 -2.26,-4.65 z"
       id="path853" />
    <path
       d="m 146.55,211.62 h 49.26 v 70.3 h -49.26 z"
       id="path855" />
    <path
       stroke="#000000"
       stroke-linejoin="round"
       stroke-linecap="butt"
       d="m 146.55,211.62 h 49.26 v 70.3 h -49.26 z"
       id="path857" />
    <path
       fill="#000000"
       d="m 172.62,251.34 v -5.48 h -9.94 v -2.58 l 10.46,-14.84 h 2.3 v 14.84 h 3.09 v 2.58 h -3.1 v 5.48 h -2.8 z m 0,-8.06 v -10.33 l -7.17,10.33 z"
       id="path859" />
    <path
       d="m 205.43,211.62 h 49.26 v 70.3 h -49.26 z"
       id="path861" />
    <path
       stroke="#000000"
       stroke-linejoin="round"
       stroke-linecap="butt"
       d="m 205.43,211.62 h 49.26 v 70.3 h -49.26 z"
       id="path863" />
    <path
       fill="#000000"
       d="m 237.27,248.64 v 2.7 h -15.14 q -0.03,-1.01 0.33,-1.95 0.58,-1.55 1.84,-3.05 1.28,-1.5 3.69,-3.47 3.73,-3.06 5.05,-4.84 1.3,-1.8 1.3,-3.4 0,-1.66 -1.2,-2.8 -1.18,-1.16 -3.1,-1.16 -2.03,0 -3.25,1.22 -1.22,1.22 -1.24,3.37 l -2.89,-0.3 q 0.3,-3.23 2.24,-4.91 1.93,-1.7 5.2,-1.7 3.3,0 5.22,1.82 1.92,1.83 1.92,4.53 0,1.38 -0.56,2.7 -0.57,1.33 -1.88,2.8 -1.3,1.47 -4.33,4.03 -2.53,2.13 -3.25,2.9 -0.71,0.74 -1.18,1.5 h 11.23 z M 276.52,72.89 h 52.66 v 209.04 h -52.66 z"
       id="path865" />
    <path
       stroke="#000000"
       stroke-width="2"
       stroke-linejoin="round"
       stroke-linecap="butt"
       d="m 276.52,72.9 h 52.66 v 209.03 h -52.66 z"
       id="path867" />
    <path
       fill="#ffffff"
       d="m 289.12,247.83 h 27.46 v 16.47 h -27.46 z"
       id="path869" />
    <path
       stroke="#000000"
       stroke-width="2"
       stroke-linejoin="round"
       stroke-linecap="butt"
       d="m 289.12,247.83 h 27.46 v 16.47 h -27.46 z"
       id="path871" />
    <path
       fill="#ffffff"
       d="m 289.12,211.62 h 27.46 v 16.47 h -27.46 z"
       id="path873" />
    <path
       stroke="#000000"
       stroke-width="2"
       stroke-linejoin="round"
       stroke-linecap="butt"
       d="m 289.12,211.62 h 27.46 v 16.47 h -27.46 z"
       id="path875" />
    <path
       fill="#ffffff"
       d="m 289.12,175.41 h 27.46 v 16.48 h -27.46 z"
       id="path877" />
    <path
       stroke="#000000"
       stroke-width="2"
       stroke-linejoin="round"
       stroke-linecap="butt"
       d="m 289.12,175.41 h 27.46 v 16.48 h -27.46 z"
       id="path879" />
    <text
       xml:space="preserve"
       style="font-size:36px;line-height:1.25;font-family:'Noto Serif JP';-inkscape-font-specification:'Noto Serif JP, Normal'"
       x="80.736"
       y="46.214401"
       id="text2815"><tspan
         sodipodi:role="line"
         id="tspan2813"
         x="80.736"
         y="46.214401" /></text>
    <text
       xml:space="preserve"
       style="font-style:normal;font-variant:normal;font-weight:normal;font-stretch:normal;font-size:36px;line-height:1.25;font-family:'Noto Serif Balinese';-inkscape-font-specification:'Noto Serif Balinese';fill:#000000"
       x="120.2688"
       y="40.6464"
       id="text3711"><tspan
         sodipodi:role="line"
         id="tspan3709"
         x="120.2688"
         y="40.6464" /></text>
    <text
       xml:space="preserve"
       style="font-style:normal;font-variant:normal;font-weight:normal;font-stretch:normal;font-size:120.73px;line-height:1.25;font-family:'Bodoni Ornaments';-inkscape-font-specification:'Bodoni Ornaments';fill:#ffffff;stroke-width:3.3536"
       x="70.527809"
       y="181.17313"
       id="text5805"
       transform="scale(1.0573759,0.94573745)"><tspan
         sodipodi:role="line"
         id="tspan5803"
         x="70.527809"
         y="181.17313"
         style="stroke-width:3.3536">1</tspan></text>
  </g>
</svg>
