<?xml version="1.0" encoding="utf-8"?>
<!-- Generator: Adobe Illustrator 27.1.1, SVG Export Plug-In . SVG Version: 6.00 Build 0)  -->
<svg version="1.1" id="レイヤー_1" xmlns="http://www.w3.org/2000/svg" xmlns:xlink="http://www.w3.org/1999/xlink" x="0px"
	 y="0px" viewBox="0 0 348 348" style="enable-background:new 0 0 348 348;" xml:space="preserve">
<style type="text/css">
	.st0{clip-path:url(#SVGID_00000119110467868802087850000018171911912193748918_);}
	.st1{fill-opacity:0;}
	.st2{fill:#FFFFFF;}
	.st3{fill:none;stroke:#000000;stroke-width:2;stroke-linejoin:round;stroke-miterlimit:10;}
	.st4{fill:#333333;stroke:#000000;stroke-miterlimit:10;}
	.st5{fill:#FFFFFF;stroke:#000000;stroke-miterlimit:10;}
	.st6{stroke:#000000;stroke-miterlimit:10;}
	.st7{font-family:'YuMincho-Regular';}
	.st8{font-size:48px;}
	.st9{fill:none;stroke:#231815;stroke-miterlimit:10;}
</style>
<g>
	<defs>
		<rect id="SVGID_1_" width="348" height="348"/>
	</defs>
	<clipPath id="SVGID_00000039842708192482052450000017250695022784303756_">
		<use xlink:href="#SVGID_1_"  style="overflow:visible;"/>
	</clipPath>
	<g style="clip-path:url(#SVGID_00000039842708192482052450000017250695022784303756_);">
		<path class="st1" d="M0,0h348v348H0V0z"/>
		<path class="st2" d="M-6,0h348v348H-6V0z"/>
		<path class="st1" d="M5.1,5.8H342v337.7H5.1L5.1,5.8z"/>
		<path class="st3" d="M5.1,5.8H342v337.7H5.1L5.1,5.8z"/>
		<path class="st2" d="M282.7,40.6L282.7,40.6c0-8.4,7-15.2,15.6-15.2l0,0c4.1,0,8.1,1.6,11,4.4c2.9,2.8,4.6,6.7,4.6,10.7l0,0
			c0,8.4-7,15.2-15.6,15.2l0,0C289.7,55.7,282.7,48.9,282.7,40.6z"/>
		<path class="st3" d="M282.7,40.6L282.7,40.6c0-8.4,7-15.2,15.6-15.2l0,0c4.1,0,8.1,1.6,11,4.4c2.9,2.8,4.6,6.7,4.6,10.7l0,0
			c0,8.4-7,15.2-15.6,15.2l0,0C289.7,55.7,282.7,48.9,282.7,40.6z"/>
	</g>
</g>
<rect class="st4" width="348" height="348"/>
<rect x="247" y="244" class="st5" width="86" height="86"/>
<rect x="128" y="304" class="st5" width="106" height="26"/>
<rect x="37" y="267.5" class="st5" width="106" height="26"/>
<rect x="121" y="231" class="st5" width="106" height="26"/>
<rect x="37" y="194.5" class="st5" width="106" height="26"/>
<rect x="121" y="158" class="st5" width="106" height="26"/>
<rect x="37" y="121.5" class="st5" width="106" height="26"/>
<rect x="121" y="85" class="st5" width="106" height="26"/>
<rect x="37" y="48.5" class="st5" width="106" height="26"/>
<rect x="290" y="244" class="st5" width="43" height="43"/>
<rect x="290" y="287" class="st5" width="43" height="43"/>
<rect x="247" y="244" class="st5" width="43" height="43"/>
<rect x="268.5" y="192" class="st5" width="43" height="43"/>
<rect x="255" y="112" class="st6" width="71" height="45"/>
<text transform="matrix(1 0 0 1 251.4601 280.5)" class="st7 st8">+</text>
<text transform="matrix(1 0 0 1 290.4999 284.1667)" class="st7 st8">－</text>
<text transform="matrix(1 0 0 1 250.0039 327.1793)" class="st7 st8">×</text>
<text transform="matrix(1 0 0 1 292.3488 327.1795)" class="st7 st8">÷</text>
<path class="st5" d="M282.6,40.4L282.6,40.4c0-8.4,7-15.2,15.6-15.2l0,0c4.1,0,8.1,1.6,11,4.4c2.9,2.8,4.6,6.7,4.6,10.7l0,0
	c0,8.4-7,15.2-15.6,15.2l0,0C289.6,55.6,282.6,48.8,282.6,40.4z"/>
<rect x="265.2" y="88.4" width="16.5" height="19.1"/>
<rect x="281.8" y="89.6" class="st9" width="35.4" height="16.9"/>
</svg>
