<?xml version="1.0" encoding="utf-8"?>
<!-- Generator: Adobe Illustrator 27.1.1, SVG Export Plug-In . SVG Version: 6.00 Build 0)  -->
<svg version="1.1" id="レイヤー_1" xmlns="http://www.w3.org/2000/svg" xmlns:xlink="http://www.w3.org/1999/xlink" x="0px"
	 y="0px" viewBox="0 0 348 348" style="enable-background:new 0 0 348 348;" xml:space="preserve">
<style type="text/css">
	.st0{clip-path:url(#SVGID_00000157307955556685859990000004578145389014052527_);}
	.st1{fill-opacity:0;}
	.st2{fill:#FFFFFF;}
	.st3{fill:none;stroke:#000000;stroke-width:2;stroke-linejoin:round;stroke-miterlimit:10;}
	.st4{fill:#FFFFFF;stroke:#000000;stroke-miterlimit:10;}
	.st5{stroke:#000000;stroke-miterlimit:10;}
	.st6{font-family:'YuMincho-Regular';}
	.st7{font-size:48px;}
</style>
<g>
	<defs>
		<rect id="SVGID_1_" width="348" height="348"/>
	</defs>
	<clipPath id="SVGID_00000098907236794102967500000010112618142359361716_">
		<use xlink:href="#SVGID_1_"  style="overflow:visible;"/>
	</clipPath>
	<g style="clip-path:url(#SVGID_00000098907236794102967500000010112618142359361716_);">
		<path class="st1" d="M0,0h348v348H0V0z"/>
		<path class="st2" d="M-6,0h348v348H-6V0z"/>
		<path class="st1" d="M5.1,5.8H342v337.7H5.1L5.1,5.8z"/>
		<path class="st3" d="M5.1,5.8H342v337.7H5.1L5.1,5.8z"/>
		<path class="st2" d="M282.7,40.6L282.7,40.6c0-8.4,7-15.2,15.6-15.2l0,0c4.1,0,8.1,1.6,11,4.4c2.9,2.8,4.6,6.7,4.6,10.7l0,0
			c0,8.4-7,15.2-15.6,15.2l0,0C289.7,55.7,282.7,48.9,282.7,40.6z"/>
		<path class="st3" d="M282.7,40.6L282.7,40.6c0-8.4,7-15.2,15.6-15.2l0,0c4.1,0,8.1,1.6,11,4.4c2.9,2.8,4.6,6.7,4.6,10.7l0,0
			c0,8.4-7,15.2-15.6,15.2l0,0C289.7,55.7,282.7,48.9,282.7,40.6z"/>
	</g>
</g>
<rect x="247" y="244" class="st4" width="86" height="86"/>
<rect x="128" y="304" class="st4" width="106" height="26"/>
<rect x="37" y="267.5" class="st4" width="106" height="26"/>
<rect x="121" y="231" class="st4" width="106" height="26"/>
<rect x="37" y="194.5" class="st4" width="106" height="26"/>
<rect x="121" y="158" class="st4" width="106" height="26"/>
<rect x="37" y="121.5" class="st4" width="106" height="26"/>
<rect x="121" y="85" class="st4" width="106" height="26"/>
<rect x="37" y="48.5" class="st4" width="106" height="26"/>
<rect x="290" y="244" class="st4" width="43" height="43"/>
<rect x="290" y="287" class="st4" width="43" height="43"/>
<rect x="247" y="244" class="st4" width="43" height="43"/>
<rect x="268.5" y="192" class="st4" width="43" height="43"/>
<rect x="255" y="112" class="st5" width="71" height="45"/>
<text transform="matrix(1 0 0 1 251.4601 280.5)" class="st6 st7">+</text>
<text transform="matrix(1 0 0 1 290.4999 284.1667)" class="st6 st7">－</text>
<text transform="matrix(1 0 0 1 250.0039 327.1793)" class="st6 st7">×</text>
<text transform="matrix(1 0 0 1 292.3488 327.1795)" class="st6 st7">÷</text>
</svg>
