<?xml version="1.0" encoding="UTF-8"?>
<svg width="206.49mm" height="208.29mm" version="1.1" viewBox="0 0 206.49 208.29" xmlns="http://www.w3.org/2000/svg">
 <defs>
  <marker id="marker1640" overflow="visible" orient="auto">
   <path transform="matrix(-.3 0 0 -.3 .69 0)" d="m8.7186 4.0337-10.926-4.0177 10.926-4.0177c-1.7455 2.3721-1.7354 5.6175-6e-7 8.0354z" fill="#00f" fill-rule="evenodd" stroke="#00f" stroke-linejoin="round" stroke-width=".625"/>
  </marker>
  <marker id="Arrow2Send" overflow="visible" orient="auto">
   <path transform="matrix(-.3 0 0 -.3 .69 0)" d="m8.7186 4.0337-10.926-4.0177 10.926-4.0177c-1.7455 2.3721-1.7354 5.6175-6e-7 8.0354z" fill="#ea0000" fill-rule="evenodd" stroke="#ea0000" stroke-linejoin="round" stroke-width=".625"/>
  </marker>
  <marker id="Arrow2Send-7" overflow="visible" orient="auto">
   <path transform="matrix(-.3 0 0 -.3 .69 0)" d="m8.7186 4.0337-10.926-4.0177 10.926-4.0177c-1.7455 2.3721-1.7354 5.6175-6e-7 8.0354z" fill="#ea0000" fill-rule="evenodd" stroke="#ea0000" stroke-linejoin="round" stroke-width=".625"/>
  </marker>
  <marker id="marker1640-9" overflow="visible" orient="auto">
   <path transform="matrix(-.3 0 0 -.3 .69 0)" d="m8.7186 4.0337-10.926-4.0177 10.926-4.0177c-1.7455 2.3721-1.7354 5.6175-6e-7 8.0354z" fill="#00f" fill-rule="evenodd" stroke="#00f" stroke-linejoin="round" stroke-width=".625"/>
  </marker>
 </defs>
 <g transform="translate(34.688 -5.0977)">
  <g fill="none">
   <g stroke="#000" stroke-dasharray="0.2, 0.2" stroke-linecap="round" stroke-width="2">
    <rect x="24.084" y="65.669" width="20.96" height="20.96"/>
    <rect x="45.044" y="65.669" width="20.96" height="20.96"/>
    <rect x="66.004" y="65.669" width="20.96" height="20.96"/>
    <rect x="86.965" y="65.669" width="20.96" height="20.96"/>
    <rect x="107.92" y="65.669" width="20.96" height="20.96"/>
    <rect x="128.89" y="65.669" width="20.96" height="20.96"/>
    <rect x="149.85" y="65.669" width="20.96" height="20.96"/>
    <rect x="24.084" y="86.629" width="20.96" height="20.96"/>
    <rect x="45.044" y="86.629" width="20.96" height="20.96"/>
    <rect x="66.004" y="86.629" width="20.96" height="20.96"/>
    <rect x="86.965" y="86.629" width="20.96" height="20.96"/>
    <rect x="107.92" y="86.629" width="20.96" height="20.96"/>
    <rect x="128.89" y="86.629" width="20.96" height="20.96"/>
    <rect x="149.85" y="86.629" width="20.96" height="20.96"/>
    <rect x="24.084" y="107.59" width="20.96" height="20.96"/>
    <rect x="45.044" y="107.59" width="20.96" height="20.96"/>
    <rect x="66.004" y="107.59" width="20.96" height="20.96"/>
    <rect x="86.965" y="107.59" width="20.96" height="20.96"/>
    <rect x="107.92" y="107.59" width="20.96" height="20.96"/>
    <rect x="128.89" y="107.59" width="20.96" height="20.96"/>
    <rect x="149.85" y="107.59" width="20.96" height="20.96"/>
    <rect x="24.084" y="128.55" width="20.96" height="20.96"/>
    <rect x="45.044" y="128.55" width="20.96" height="20.96"/>
    <rect x="66.004" y="128.55" width="20.96" height="20.96"/>
    <rect x="86.965" y="128.55" width="20.96" height="20.96"/>
    <rect x="107.92" y="128.55" width="20.96" height="20.96"/>
    <rect x="128.89" y="128.55" width="20.96" height="20.96"/>
    <rect x="149.85" y="128.55" width="20.96" height="20.96"/>
    <rect x="24.084" y="149.51" width="20.96" height="20.96"/>
    <rect x="45.044" y="149.51" width="20.96" height="20.96"/>
    <rect x="66.004" y="149.51" width="20.96" height="20.96"/>
    <rect x="86.965" y="149.51" width="20.96" height="20.96"/>
    <rect x="107.92" y="149.51" width="20.96" height="20.96"/>
    <rect x="128.89" y="149.51" width="20.96" height="20.96"/>
    <rect x="149.85" y="149.51" width="20.96" height="20.96"/>
    <rect x="24.084" y="170.47" width="20.96" height="20.96"/>
    <rect x="45.044" y="170.47" width="20.96" height="20.96"/>
    <rect x="66.004" y="170.47" width="20.96" height="20.96"/>
    <rect x="86.965" y="170.47" width="20.96" height="20.96"/>
    <rect x="107.92" y="170.47" width="20.96" height="20.96"/>
    <rect x="128.89" y="170.47" width="20.96" height="20.96"/>
    <rect x="149.85" y="170.47" width="20.96" height="20.96"/>
    <rect x="24.084" y="191.43" width="20.96" height="20.96"/>
    <rect x="45.044" y="191.43" width="20.96" height="20.96"/>
    <rect x="66.004" y="191.43" width="20.96" height="20.96"/>
    <rect x="86.965" y="191.43" width="20.96" height="20.96"/>
    <rect x="107.92" y="191.43" width="20.96" height="20.96"/>
    <rect x="128.89" y="191.43" width="20.96" height="20.96"/>
    <rect x="149.85" y="191.43" width="20.96" height="20.96"/>
   </g>
   <g stroke-width="1.5">
    <path d="m34.48 76.149h126.33" marker-end="url(#Arrow2Send)" stroke="#ea0000"/>
    <path d="m34.564 76.186 2e-6 127.56" marker-end="url(#marker1640)" stroke="#00f"/>
    <path d="m34.48 97.75h126.33" marker-end="url(#Arrow2Send-7)" stroke="#ea0000"/>
    <path d="m56.024 76.186 2e-6 127.56" marker-end="url(#marker1640-9)" stroke="#00f"/>
   </g>
  </g>
  <g>
   <g aria-label="段">
    <path d="m95.876 27.347q0.92707 3.7083 4.2645 7.7874 3.152-3.3375 4.6354-7.7874zm15.76 18.356q-6.3041-2.0396-11.496-6.1187-4.45 3.7083-11.867 6.3041l-1.6687-3.8937q7.2312-2.0396 10.939-4.8208-3.5229-4.4499-5.0062-9.827h-2.7812v-3.5229h16.316l0.74166-0.74166 2.9666 2.4104q1.1125 0.74166-0.55625 0.92707-2.7812 7.0457-6.6749 10.939 4.0791 2.4104 10.569 4.2645zm-33.931-38.195q4.6354-0.74166 8.7145-2.4104l2.5958 2.9666q0.74166 0.92707-1.4833 0.74166-4.4499 1.1125-9.4561 1.6687v5.0062h8.7145v3.5229h-8.7145v5.377h8.8999v3.5229h-8.8999v6.4895l10.569-2.225v3.3375l-10.569 2.7812v7.4166h-3.7083v-6.6749l-2.0396 0.55624q-0.18542 1.2979-0.92707 0.55624l-0.55624-4.6354 3.5229-0.55624v-28.183zm30.593 9.6416q1.1125 0 1.2979-0.74166l0.74166-2.9666 3.5229 0.92707q-1.1125 6.3041-4.6354 6.3041h-3.8937q-3.3375 0-3.3375-3.152v-8.3437h-6.4895v5.7478q0 6.4895-7.0457 8.5291l-1.4833-3.3375q4.8208-1.1125 4.8208-5.377v-9.0853h13.906v10.012q0 1.4833 1.2979 1.4833z" stroke-width="1.1867"/>
   </g>
   <g stroke-width="1.1867" aria-label="列">
    <path d="m-5.0222 103.17c0.98888 0.12361 1.0507 0.49443 0.18541 1.1125v24.475h-3.7083v-25.587z" fill="#0004ff"/>
    <path d="m0.91102 98.162h3.5229c0.98888 0.12361 1.0507 0.49444 0.18541 1.1125v35.229c0 1.8541-0.74166 2.7812-2.225 2.7812h-5.5624l-0.37083-3.5229h3.7083c0.49444 0 0.74166-0.24722 0.74166-0.74166v-17.429z" fill="#0004ff"/>
    <path d="m-26.53 119.11c-1.9778 2.9666-3.9555 5.068-5.9332 6.3041l-2.225-3.5229c5.5624-4.4499 8.7763-10.816 9.6415-19.098h-6.6749v-3.5229h21.693v3.5229h-11.31c0 0.61805-0.30902 2.4722-0.92707 5.5624h9.6415c0.24722 15.08-5.5006 25.093-17.244 30.037l-2.4104-3.8937c6.1805-2.7194 10.321-6.1187 12.423-10.198-1.1125-1.4833-3.3375-3.2138-6.6749-5.1916z"/>
    <path d="m-23.007 111.88c-0.24722 0.74165-0.86527 2.225-1.8541 4.4499 2.5958 1.2361 4.8208 2.5958 6.6749 4.0791 0.74166-2.7194 1.2361-5.5624 1.4833-8.529z" fill="#fffffe"/>
   </g>
   <path d="m74.368 15.441 12.423 0.03965v3.5229l-12.423 0.03364z" fill="#ff0004"/>
   <path d="m74.553 24.341 12.423 0.03965v3.5229l-12.423 0.03364z" fill="#ff0004"/>
  </g>
 </g>
</svg>
