<?xml version="1.0" encoding="UTF-8" standalone="no"?>
<svg
   xmlns:dc="http://purl.org/dc/elements/1.1/"
   xmlns:cc="http://creativecommons.org/ns#"
   xmlns:rdf="http://www.w3.org/1999/02/22-rdf-syntax-ns#"
   xmlns:svg="http://www.w3.org/2000/svg"
   xmlns="http://www.w3.org/2000/svg"
   id="svg95"
   stroke-miterlimit="10"
   stroke-linecap="square"
   stroke="none"
   fill="none"
   viewBox="0.0 0.0 348.0 348.0"
   version="1.1">
  <metadata
     id="metadata101">
    <rdf:RDF>
      <cc:Work
         rdf:about="">
        <dc:format>image/svg+xml</dc:format>
        <dc:type
           rdf:resource="http://purl.org/dc/dcmitype/StillImage" />
      </cc:Work>
    </rdf:RDF>
  </metadata>
  <defs
     id="defs99" />
  <clipPath
     id="p.0">
    <path
       id="path2"
       clip-rule="nonzero"
       d="m0 0l348.0 0l0 348.0l-348.0 0l0 -348.0z" />
  </clipPath>
  <g
     id="g81"
     clip-path="url(#p.0)">
    <path
       id="path5"
       fill-rule="nonzero"
       d="M 0,0 H 348 V 348 H 0 Z"
       fill-opacity="0"
       fill="#000000" />
    <path
       id="path7"
       fill-rule="nonzero"
       d="M -6,0 H 348.01575 V 347.9685 H -6 Z"
       fill="#ffffff" />
    <path
       id="path9"
       fill-rule="nonzero"
       d="m 5.07874,5.7758217 h 336.9134 V 343.44512 H 5.07874 Z"
       fill-opacity="0"
       fill="#000000" />
    <path
       id="path11"
       fill-rule="nonzero"
       d="m 5.07874,5.7758217 h 336.9134 V 343.44512 H 5.07874 Z"
       stroke-linecap="butt"
       stroke-linejoin="round"
       stroke-width="2"
       stroke="#000000" />
    <path
       id="path13"
       fill-rule="nonzero"
       d="m 133.84251,15.666667 h 74.33072 v 56.881886 h -74.33072 z"
       fill="#000000" />
    <path
       id="path15"
       fill-rule="nonzero"
       d="m 154.53912,44.089794 q 0,-4.0625 0.82812,-6.53125 0.84375,-2.484375 2.48438,-3.828125 1.65625,-1.34375 4.15625,-1.34375 1.84375,0 3.23437,0.75 1.39063,0.734375 2.29688,2.140625 0.90625,1.390625 1.42187,3.40625 0.51563,2 0.51563,5.40625 0,4.03125 -0.82813,6.515625 -0.82812,2.46875 -2.48437,3.828125 -1.64063,1.34375 -4.15625,1.34375 -3.3125,0 -5.20313,-2.375 -2.26562,-2.859375 -2.26562,-9.3125 z m 2.89062,0 q 0,5.640625 1.3125,7.515625 1.32813,1.859375 3.26563,1.859375 1.9375,0 3.25,-1.875 1.32812,-1.875 1.32812,-7.5 0,-5.65625 -1.32812,-7.515625 -1.3125,-1.859375 -3.28125,-1.859375 -1.9375,0 -3.09375,1.640625 -1.45313,2.09375 -1.45313,7.734375 z m 14.90625,0 q 0,-4.0625 0.82813,-6.53125 0.84375,-2.484375 2.48437,-3.828125 1.65625,-1.34375 4.15625,-1.34375 1.84375,0 3.23438,0.75 1.39062,0.734375 2.29687,2.140625 0.90625,1.390625 1.42188,3.40625 0.51562,2 0.51562,5.40625 0,4.03125 -0.82812,6.515625 -0.82813,2.46875 -2.48438,3.828125 -1.64062,1.34375 -4.15625,1.34375 -3.3125,0 -5.20312,-2.375 -2.26563,-2.859375 -2.26563,-9.3125 z m 2.89063,0 q 0,5.640625 1.3125,7.515625 1.32812,1.859375 3.26562,1.859375 1.9375,0 3.25,-1.875 1.32813,-1.875 1.32813,-7.5 0,-5.65625 -1.32813,-7.515625 -1.3125,-1.859375 -3.28125,-1.859375 -1.9375,0 -3.09375,1.640625 -1.45312,2.09375 -1.45312,7.734375 z"
       fill="#ffffff" />
    <path
       id="path17"
       fill-rule="nonzero"
       d="M 15.262467,17.706038 H 125.15223 v 54.83464 H 15.262467 Z"
       fill="#ffffff" />
    <path
       id="path19"
       fill-rule="nonzero"
       d="M 15.262467,17.706038 H 125.15223 v 54.83464 H 15.262467 Z"
       stroke-linecap="butt"
       stroke-linejoin="round"
       stroke-width="2"
       stroke="#000000" />
    <path
       id="path21"
       fill-rule="nonzero"
       d="M 15.262467,72.65354 54.947507,18.5748"
       fill-opacity="0"
       fill="#000000" />
    <path
       id="path23"
       fill-rule="nonzero"
       d="M 15.262467,72.65354 54.947507,18.5748"
       stroke-linecap="butt"
       stroke-linejoin="round"
       stroke-width="2"
       stroke="#000000" />
    <path
       id="path25"
       fill-rule="nonzero"
       d="M 37.56649,72.65354 77.251533,18.5748"
       fill-opacity="0"
       fill="#000000" />
    <path
       id="path27"
       fill-rule="nonzero"
       d="M 37.56649,72.65354 77.251533,18.5748"
       stroke-linecap="butt"
       stroke-linejoin="round"
       stroke-width="2"
       stroke="#000000" />
    <path
       id="path29"
       fill-rule="nonzero"
       d="M 59.870514,72.65354 99.555557,18.5748"
       fill-opacity="0"
       fill="#000000" />
    <path
       id="path31"
       fill-rule="nonzero"
       d="M 59.870514,72.65354 99.555557,18.5748"
       stroke-linecap="butt"
       stroke-linejoin="round"
       stroke-width="2"
       stroke="#000000" />
    <path
       id="path33"
       fill-rule="nonzero"
       d="M 82.17454,72.65354 121.85958,18.5748"
       fill-opacity="0"
       fill="#000000" />
    <path
       id="path35"
       fill-rule="nonzero"
       d="M 82.17454,72.65354 121.85958,18.5748"
       stroke-linecap="butt"
       stroke-linejoin="round"
       stroke-width="2"
       stroke="#000000" />
    <path
       id="path37"
       fill-rule="nonzero"
       d="M 32.97638,83.031494 H 315.02362 V 325.3937 H 32.97638 Z"
       fill="#ffffff" />
    <path
       id="path39"
       fill-rule="nonzero"
       d="M 32.97638,83.031494 H 315.02362 V 325.3937 H 32.97638 Z"
       stroke-linecap="butt"
       stroke-linejoin="round"
       stroke-width="2"
       stroke="#000000" />
    <path
       id="path41"
       fill-rule="nonzero"
       d="m 216.86351,16.633858 h 109.88975 v 54.83465 H 216.86351 Z"
       fill="#ffffff" />
    <path
       id="path43"
       fill-rule="nonzero"
       d="m 216.86351,16.633858 h 109.88975 v 54.83465 H 216.86351 Z"
       stroke-linecap="butt"
       stroke-linejoin="round"
       stroke-width="2"
       stroke="#000000" />
    <path
       id="path45"
       fill-rule="nonzero"
       d="M 216.86351,71.58137 256.54855,17.502627"
       fill-opacity="0"
       fill="#000000" />
    <path
       id="path47"
       fill-rule="nonzero"
       d="M 216.86351,71.58137 256.54855,17.502627"
       stroke-linecap="butt"
       stroke-linejoin="round"
       stroke-width="2"
       stroke="#000000" />
    <path
       id="path49"
       fill-rule="nonzero"
       d="M 239.16754,71.58137 278.85257,17.502627"
       fill-opacity="0"
       fill="#000000" />
    <path
       id="path51"
       fill-rule="nonzero"
       d="M 239.16754,71.58137 278.85257,17.502627"
       stroke-linecap="butt"
       stroke-linejoin="round"
       stroke-width="2"
       stroke="#000000" />
    <path
       id="path53"
       fill-rule="nonzero"
       d="M 261.47156,71.58137 301.15662,17.502627"
       fill-opacity="0"
       fill="#000000" />
    <path
       id="path55"
       fill-rule="nonzero"
       d="M 261.47156,71.58137 301.15662,17.502627"
       stroke-linecap="butt"
       stroke-linejoin="round"
       stroke-width="2"
       stroke="#000000" />
    <path
       id="path57"
       fill-rule="nonzero"
       d="M 283.7756,71.58137 323.46063,17.502627"
       fill-opacity="0"
       fill="#000000" />
    <path
       id="path59"
       fill-rule="nonzero"
       d="M 283.7756,71.58137 323.46063,17.502627"
       stroke-linecap="butt"
       stroke-linejoin="round"
       stroke-width="2"
       stroke="#000000" />
    <path
       id="path61"
       fill-rule="nonzero"
       d="M 44.490814,88.11811 H 303.48294 V 252.05512 H 44.490814 Z"
       fill="#000000" />
    <path
       id="path63"
       fill-rule="nonzero"
       d="m 113.77165,267.51697 h 49.25984 v 45.48032 h -49.25984 z"
       stroke-linecap="butt"
       stroke-linejoin="round"
       stroke-width="1"
       stroke="#000000" />
    <path
       id="path65"
       fill-rule="nonzero"
       d="m 182.79527,267.51697 h 49.25984 v 45.48032 h -49.25984 z"
       fill-opacity="0"
       fill="#000000" />
    <path
       id="path67"
       fill-rule="nonzero"
       d="m 182.79527,267.51697 h 49.25984 v 45.48032 h -49.25984 z"
       stroke-linecap="butt"
       stroke-linejoin="round"
       stroke-width="1"
       stroke="#000000" />
    <path
       id="path69"
       fill-rule="nonzero"
       d="m 260.08136,270.74014 h 36.72443 v 25.63782 h -36.72443 z"
       fill="#ffffff" />
    <path
       id="path71"
       fill-rule="nonzero"
       d="m 260.08136,270.74014 h 36.72443 v 25.63782 h -36.72443 z"
       stroke-linecap="butt"
       stroke-linejoin="round"
       stroke-width="2"
       stroke="#000000" />
    <path
       id="path73"
       fill-rule="nonzero"
       d="m 265.46457,305.50656 v 0 c 0,-2.35699 1.91071,-4.26773 4.2677,-4.26773 v 0 c 1.1319,0 2.21741,0.44965 3.01773,1.25 0.80035,0.80035 1.25,1.88586 1.25,3.01773 v 0 c 0,2.35699 -1.91074,4.26773 -4.26773,4.26773 v 0 c -2.35699,0 -4.2677,-1.91074 -4.2677,-4.26773 z"
       fill="#ffffff" />
    <path
       id="path75"
       fill-rule="nonzero"
       d="m 265.46457,305.50656 v 0 c 0,-2.35699 1.91071,-4.26773 4.2677,-4.26773 v 0 c 1.1319,0 2.21741,0.44965 3.01773,1.25 0.80035,0.80035 1.25,1.88586 1.25,3.01773 v 0 c 0,2.35699 -1.91074,4.26773 -4.26773,4.26773 v 0 c -2.35699,0 -4.2677,-1.91074 -4.2677,-4.26773 z"
       stroke-linecap="butt"
       stroke-linejoin="round"
       stroke-width="2"
       stroke="#000000" />
    <path
       id="path77"
       fill-rule="nonzero"
       d="m 282.8084,305.50656 v 0 c 0,-2.35699 1.91071,-4.26773 4.2677,-4.26773 v 0 c 1.13187,0 2.21738,0.44965 3.01773,1.25 0.80035,0.80035 1.25,1.88586 1.25,3.01773 v 0 c 0,2.35699 -1.91074,4.26773 -4.26773,4.26773 v 0 c -2.35699,0 -4.2677,-1.91074 -4.2677,-4.26773 z"
       fill="#ffffff" />
    <path
       id="path79"
       fill-rule="nonzero"
       d="m 282.8084,305.50656 v 0 c 0,-2.35699 1.91071,-4.26773 4.2677,-4.26773 v 0 c 1.13187,0 2.21738,0.44965 3.01773,1.25 0.80035,0.80035 1.25,1.88586 1.25,3.01773 v 0 c 0,2.35699 -1.91074,4.26773 -4.26773,4.26773 v 0 c -2.35699,0 -4.2677,-1.91074 -4.2677,-4.26773 z"
       stroke-linecap="butt"
       stroke-linejoin="round"
       stroke-width="2"
       stroke="#000000" />
  </g>
  <g
     style="font-size:42px;font-family:'DejaVu Sans', sans-serif;text-anchor:middle;fill:#ffffff"
     id="text85"
     aria-label="[ テキスト ]">
    <path
       id="path103"
       d="m 63.832031,106.08984 h 8.695313 v 2.93262 h -4.921875 v 31.58203 h 4.921875 v 2.93262 h -8.695313 z" />
    <path
       id="path105"
       d="M 110.50781,121.59375 H 94.101562 v -3.60937 h 33.632818 v 3.60937 h -13.45313 v 2.13281 q 0,10.33594 -7.38281,17.0625 l -3.28125,-2.46094 q 6.89062,-5.41406 6.89062,-14.60156 z m -10.5,-10.00781 v -3.60938 h 21.82032 v 3.60938 z" />
    <path
       id="path107"
       d="m 171.53906,125.20313 -15.25781,1.64062 3.11719,13.28906 -3.60938,0.82031 -3.11719,-13.61718 -16.73437,1.96875 -0.49219,-3.44531 16.40625,-1.80469 -1.64062,-7.71094 -11.15625,1.3125 -0.65625,-3.44531 10.82812,-1.14844 -1.64062,-7.54687 3.44531,-0.65625 q 1.47656,-0.16407 0.49219,1.14843 l 1.3125,6.5625 11.97656,-1.64062 0.65625,3.44531 -11.64844,1.47656 1.64063,7.71094 15.42187,-1.80469 z" />
    <path
       id="path109"
       d="m 197.625,123.07031 q 7.05469,5.41406 13.94531,12.46875 l -3.28125,2.78906 Q 201.39844,131.10937 195,126.1875 q -6.39844,6.89062 -14.60156,12.30469 l -3.11719,-2.78907 q 17.39062,-11.32031 22.3125,-22.64062 l -17.88281,1.14844 -0.49219,-3.9375 19.03125,-0.82031 1.96875,-0.49219 2.625,2.625 q 1.14844,1.14844 -0.65625,1.47656 -3.11719,5.41406 -6.5625,10.00781 z" />
    <path
       id="path111"
       d="m 235.6875,118.3125 q 8.03906,2.29688 16.24219,6.23438 l -1.96875,3.77343 q -8.69532,-4.42968 -14.27344,-5.90625 v 17.0625 h -3.77344 v -32.8125 h 3.28125 q 1.96875,0.16407 0.49219,1.3125 z" />
    <path
       id="path113"
       d="m 284.14746,106.08984 v 37.44727 h -8.69531 v -2.93262 h 4.90137 v -31.58203 h -4.90137 v -2.93262 z" />
  </g>
  <g
     style="font-size:24px;font-family:'DejaVu Sans', sans-serif;text-anchor:middle;fill:#000000"
     id="text89"
     aria-label="Y">
    <path
       id="path116"
       d="m 130.61719,279.50391 h 2.54297 l 4.85156,7.19531 4.8164,-7.19531 h 2.54297 l -6.1875,9.16406 V 297 h -2.3789 v -8.33203 z" />
  </g>
  <g
     style="font-size:24px;font-family:'DejaVu Sans', sans-serif;text-anchor:middle;fill:#000000"
     id="text93"
     aria-label="N">
    <path
       id="path119"
       d="m 201.37891,279.50391 h 3.1875 l 7.75781,14.63671 v -14.63671 h 2.29687 V 297 h -3.1875 l -7.75781,-14.63672 V 297 h -2.29687 z" />
  </g>
</svg>
