<?xml version="1.0" encoding="UTF-8" standalone="no"?>
<svg
   xmlns:dc="http://purl.org/dc/elements/1.1/"
   xmlns:cc="http://creativecommons.org/ns#"
   xmlns:rdf="http://www.w3.org/1999/02/22-rdf-syntax-ns#"
   xmlns:svg="http://www.w3.org/2000/svg"
   xmlns="http://www.w3.org/2000/svg"
   id="svg111"
   stroke-miterlimit="10"
   stroke-linecap="square"
   stroke="none"
   fill="none"
   viewBox="0.0 0.0 348.0 348.0"
   version="1.1">
  <metadata
     id="metadata117">
    <rdf:RDF>
      <cc:Work
         rdf:about="">
        <dc:format>image/svg+xml</dc:format>
        <dc:type
           rdf:resource="http://purl.org/dc/dcmitype/StillImage" />
      </cc:Work>
    </rdf:RDF>
  </metadata>
  <defs
     id="defs115" />
  <clipPath
     id="p.0">
    <path
       id="path2"
       clip-rule="nonzero"
       d="m0 0l348.0 0l0 348.0l-348.0 0l0 -348.0z" />
  </clipPath>
  <g
     id="g85"
     clip-path="url(#p.0)">
    <path
       id="path5"
       fill-rule="evenodd"
       d="M 0,0 H 348 V 348 H 0 Z"
       fill-opacity="0"
       fill="#000000" />
    <path
       id="path7"
       fill-rule="evenodd"
       d="M -6,0 H 348.01575 V 347.9685 H -6 Z"
       fill="#ffffff" />
    <path
       id="path9"
       fill-rule="evenodd"
       d="m 5.07874,5.7758217 h 336.9134 V 343.4451 H 5.07874 Z"
       fill-opacity="0"
       fill="#000000" />
    <path
       id="path11"
       fill-rule="evenodd"
       d="m 5.07874,5.7758217 h 336.9134 V 343.4451 H 5.07874 Z"
       stroke-linecap="butt"
       stroke-linejoin="round"
       stroke-width="2"
       stroke="#000000" />
    <path
       id="path13"
       fill-rule="evenodd"
       d="m 282.73444,40.553925 v 0 c 0,-8.375591 6.96603,-15.165352 15.55905,-15.165352 v 0 c 4.12653,0 8.08402,1.597773 11.00192,4.441828 2.91788,2.844057 4.55713,6.701422 4.55713,10.723524 v 0 c 0,8.375595 -6.966,15.165356 -15.55905,15.165356 v 0 c -8.59302,0 -15.55905,-6.789761 -15.55905,-15.165356 z"
       fill="#ffffff" />
    <path
       id="path15"
       fill-rule="evenodd"
       d="m 282.73444,40.553925 v 0 c 0,-8.375591 6.96603,-15.165352 15.55905,-15.165352 v 0 c 4.12653,0 8.08402,1.597773 11.00192,4.441828 2.91788,2.844057 4.55713,6.701422 4.55713,10.723524 v 0 c 0,8.375595 -6.966,15.165356 -15.55905,15.165356 v 0 c -8.59302,0 -15.55905,-6.789761 -15.55905,-15.165356 z"
       stroke-linecap="butt"
       stroke-linejoin="round"
       stroke-width="2"
       stroke="#000000" />
    <path
       id="path17"
       fill-rule="evenodd"
       d="M 50.949955,90.04964 60.41452,72.726802 69.879089,90.04964 Z"
       fill="#000000" />
    <path
       id="path19"
       fill-rule="evenodd"
       d="M 50.949955,90.04964 60.41452,72.726802 69.879089,90.04964 Z"
       stroke-linecap="butt"
       stroke-linejoin="round"
       stroke-width="2"
       stroke="#000000" />
    <path
       id="path21"
       fill-rule="evenodd"
       d="m 122.04724,268.00525 h 97.92126 v 41.88977 h -97.92126 z"
       fill-opacity="0"
       fill="#000000" />
    <path
       id="path23"
       fill-rule="evenodd"
       d="m 122.04724,268.00525 h 97.92126 v 41.88977 h -97.92126 z"
       stroke-linecap="butt"
       stroke-linejoin="round"
       stroke-width="2"
       stroke="#000000" />
    <path
       id="path25"
       fill-rule="evenodd"
       d="M 29.517061,106.30446 H 289.61154 v 96.81889 H 29.517061 Z"
       fill="#000000" />
    <path
       id="path27"
       fill-rule="evenodd"
       d="M 29.517061,106.30446 H 289.61154 v 96.81889 H 29.517061 Z"
       stroke-linecap="butt"
       stroke-linejoin="round"
       stroke-width="2"
       stroke="#000000" />
    <path
       id="path29"
       fill-rule="evenodd"
       d="m 35.627296,113.07874 h 49.574806 v 82.14173 H 35.627296 Z"
       fill="#ffffff" />
    <path
       id="path31"
       fill-rule="evenodd"
       d="m 35.627296,113.07874 h 49.574806 v 82.14173 H 35.627296 Z"
       stroke-linecap="butt"
       stroke-linejoin="round"
       stroke-width="1"
       stroke="#000000" />
    <path
       id="path33"
       fill-rule="evenodd"
       d="m 85.2021,113.07874 h 49.5748 v 82.14173 H 85.2021 Z"
       fill="#ffffff" />
    <path
       id="path35"
       fill-rule="evenodd"
       d="m 85.2021,113.07874 h 49.5748 v 82.14173 H 85.2021 Z"
       stroke-linecap="butt"
       stroke-linejoin="round"
       stroke-width="1"
       stroke="#000000" />
    <path
       id="path37"
       fill-rule="evenodd"
       d="m 134.77843,113.07874 h 49.5748 v 82.14173 h -49.5748 z"
       fill="#ffffff" />
    <path
       id="path39"
       fill-rule="evenodd"
       d="m 134.77843,113.07874 h 49.5748 v 82.14173 h -49.5748 z"
       stroke-linecap="butt"
       stroke-linejoin="round"
       stroke-width="1"
       stroke="#000000" />
    <path
       id="path41"
       fill-rule="evenodd"
       d="m 184.35214,113.07874 h 49.5748 v 82.14173 h -49.5748 z"
       fill="#ffffff" />
    <path
       id="path43"
       fill-rule="evenodd"
       d="m 184.35214,113.07874 h 49.5748 v 82.14173 h -49.5748 z"
       stroke-linecap="butt"
       stroke-linejoin="round"
       stroke-width="1"
       stroke="#000000" />
    <path
       id="path45"
       fill-rule="evenodd"
       d="m 233.9265,113.07874 h 49.57481 v 82.14173 H 233.9265 Z"
       fill="#ffffff" />
    <path
       id="path47"
       fill-rule="evenodd"
       d="m 233.9265,113.07874 h 49.57481 v 82.14173 H 233.9265 Z"
       stroke-linecap="butt"
       stroke-linejoin="round"
       stroke-width="1"
       stroke="#000000" />
    <path
       id="path49"
       fill-rule="evenodd"
       d="m 100.52476,90.04964 9.46457,-17.322838 9.46457,17.322838 z"
       fill="#000000" />
    <path
       id="path51"
       fill-rule="evenodd"
       d="m 100.52476,90.04964 9.46457,-17.322838 9.46457,17.322838 z"
       stroke-linecap="butt"
       stroke-linejoin="round"
       stroke-width="2"
       stroke="#000000" />
    <path
       id="path53"
       fill-rule="evenodd"
       d="m 150.09956,90.04964 9.46457,-17.322838 9.46457,17.322838 z"
       fill="#000000" />
    <path
       id="path55"
       fill-rule="evenodd"
       d="m 150.09956,90.04964 9.46457,-17.322838 9.46457,17.322838 z"
       stroke-linecap="butt"
       stroke-linejoin="round"
       stroke-width="2"
       stroke="#000000" />
    <path
       id="path57"
       fill-rule="evenodd"
       d="m 199.67436,90.04964 9.46457,-17.322838 9.46457,17.322838 z"
       fill="#000000" />
    <path
       id="path59"
       fill-rule="evenodd"
       d="m 199.67436,90.04964 9.46457,-17.322838 9.46457,17.322838 z"
       stroke-linecap="butt"
       stroke-linejoin="round"
       stroke-width="2"
       stroke="#000000" />
    <path
       id="path61"
       fill-rule="evenodd"
       d="m 249.24916,90.04964 9.46458,-17.322838 9.46457,17.322838 z"
       fill="#000000" />
    <path
       id="path63"
       fill-rule="evenodd"
       d="m 249.24916,90.04964 9.46458,-17.322838 9.46457,17.322838 z"
       stroke-linecap="butt"
       stroke-linejoin="round"
       stroke-width="2"
       stroke="#000000" />
    <path
       id="path65"
       fill-rule="evenodd"
       d="m 268.1783,219.37772 -9.46457,17.32284 -9.46458,-17.32284 z"
       fill="#000000" />
    <path
       id="path67"
       fill-rule="evenodd"
       d="m 268.1783,219.37772 -9.46457,17.32284 -9.46458,-17.32284 z"
       stroke-linecap="butt"
       stroke-linejoin="round"
       stroke-width="2"
       stroke="#000000" />
    <path
       id="path69"
       fill-rule="evenodd"
       d="m 218.6035,219.37772 -9.46457,17.32284 -9.46457,-17.32284 z"
       fill="#000000" />
    <path
       id="path71"
       fill-rule="evenodd"
       d="m 218.6035,219.37772 -9.46457,17.32284 -9.46457,-17.32284 z"
       stroke-linecap="butt"
       stroke-linejoin="round"
       stroke-width="2"
       stroke="#000000" />
    <path
       id="path73"
       fill-rule="evenodd"
       d="m 169.0287,219.37772 -9.46457,17.32284 -9.46457,-17.32284 z"
       fill="#000000" />
    <path
       id="path75"
       fill-rule="evenodd"
       d="m 169.0287,219.37772 -9.46457,17.32284 -9.46457,-17.32284 z"
       stroke-linecap="butt"
       stroke-linejoin="round"
       stroke-width="2"
       stroke="#000000" />
    <path
       id="path77"
       fill-rule="evenodd"
       d="m 119.4539,219.37772 -9.46457,17.32284 -9.46457,-17.32284 z"
       fill="#000000" />
    <path
       id="path79"
       fill-rule="evenodd"
       d="m 119.4539,219.37772 -9.46457,17.32284 -9.46457,-17.32284 z"
       stroke-linecap="butt"
       stroke-linejoin="round"
       stroke-width="2"
       stroke="#000000" />
    <path
       id="path81"
       fill-rule="evenodd"
       d="m 69.87909,219.37772 -9.464569,17.32284 -9.464565,-17.32284 z"
       fill="#000000" />
    <path
       id="path83"
       fill-rule="evenodd"
       d="m 69.87909,219.37772 -9.464569,17.32284 -9.464565,-17.32284 z"
       stroke-linecap="butt"
       stroke-linejoin="round"
       stroke-width="2"
       stroke="#000000" />
  </g>
  <g
     style="font-size:20px;font-family:'DejaVu Sans', sans-serif;text-anchor:middle;fill:#000000"
     id="text89"
     aria-label="送信">
    <path
       id="path119"
       d="m 155.45312,284.28125 q -1.01562,-1.5625 -2.34375,-2.57813 l 1.25,-1.17187 q 1.71875,1.25 2.34375,2.5 z M 151.9375,296 l 2.65625,-1.5625 v -5.23438 h -2.5 v -1.48437 h 4.0625 v 6.32812 q 1.79687,1.79688 4.21875,1.79688 h 9.6875 l -0.39063,1.48437 h -9.53125 q -2.57812,0 -4.76562,-2.10937 l -2.57813,2.57812 z m 17.10937,-6.875 h -5.3125 l -0.0781,0.70312 q 3.125,1.40625 5.07812,3.20313 l -1.09375,1.71875 q -2.57812,-2.65625 -4.53125,-3.51563 -1.09375,2.03125 -4.45312,3.98438 l -0.9375,-1.64063 q 4.0625,-2.03125 4.45312,-4.45312 H 157.25 v -1.48438 h 5 v -2.57812 h -4.375 v -1.48438 h 2.73437 Q 159.75,282.09375 158.57812,281 l 1.40625,-0.9375 q 1.09375,1.01562 2.03125,2.57812 l -1.25,0.9375 h 2.65625 l 1.875,-3.90625 1.71875,0.78125 q 0.3125,0.3125 -0.23437,0.39063 l -1.79688,2.73437 h 3.4375 v 1.48438 h -4.60937 v 2.57812 h 5.23437 z" />
    <path
       id="path121"
       d="m 171.78125,288.65625 q 2.96875,-3.51563 3.51562,-8.67188 l 1.79688,0.46875 q 0.3125,0.3125 -0.23438,0.46875 -0.39062,2.26563 -1.01562,4.0625 0.85937,0.0781 0.15625,0.54688 v 12.1875 h -1.5625 V 287.875 q -0.54688,1.09375 -1.48438,2.1875 z m 15.15625,4.375 h -6.95313 v 2.26562 h 6.95313 z m -8.51563,-1.48438 H 188.5 v 5.9375 h -1.5625 v -0.70312 h -6.95313 v 0.9375 h -1.5625 z m 0.46875,-1.32812 v -1.48438 h 8.82813 v 1.48438 z m 0,-2.73438 V 286 h 8.82813 v 1.48437 z m -1.79687,-4.14062 h 12.57812 v 1.48437 h -12.57812 z m 1.79687,-2.8125 h 8.82813 v 1.48437 h -8.82813 z" />
  </g>
  <g
     style="font-size:42px;font-family:'DejaVu Sans', sans-serif;text-anchor:middle;fill:#000000"
     id="text93"
     aria-label="A">
    <path
       id="path124"
       d="m 60,143.46289 -5.619141,15.23731 h 11.258789 z m -2.337891,-4.08105 h 4.696289 L 74.027344,170 h -4.306641 l -2.789062,-7.85449 H 53.129883 L 50.34082,170 h -4.368164 z" />
  </g>
  <g
     style="font-size:42px;font-family:'DejaVu Sans', sans-serif;text-anchor:middle;fill:#000000"
     id="text97"
     aria-label="A">
    <path
       id="path127"
       d="m 110,143.46289 -5.61914,15.23731 h 11.25879 z m -2.33789,-4.08105 h 4.69629 L 124.02734,170 h -4.30664 l -2.78906,-7.85449 H 103.12988 L 100.34082,170 h -4.368164 z" />
  </g>
  <g
     style="font-size:42px;font-family:'DejaVu Sans', sans-serif;text-anchor:middle;fill:#000000"
     id="text101"
     aria-label="A">
    <path
       id="path130"
       d="m 160,143.46289 -5.61914,15.23731 h 11.25879 z m -2.33789,-4.08105 h 4.69629 L 174.02734,170 h -4.30664 l -2.78906,-7.85449 H 153.12988 L 150.34082,170 h -4.36816 z" />
  </g>
  <g
     style="font-size:42px;font-family:'DejaVu Sans', sans-serif;text-anchor:middle;fill:#000000"
     id="text105"
     aria-label="A">
    <path
       id="path133"
       d="m 210,143.46289 -5.61914,15.23731 h 11.25879 z m -2.33789,-4.08105 h 4.69629 L 224.02734,170 h -4.30664 l -2.78906,-7.85449 H 203.12988 L 200.34082,170 h -4.36816 z" />
  </g>
  <g
     style="font-size:42px;font-family:'DejaVu Sans', sans-serif;text-anchor:middle;fill:#000000"
     id="text109"
     aria-label="A">
    <path
       id="path136"
       d="m 260,143.46289 -5.61914,15.23731 h 11.25879 z m -2.33789,-4.08105 h 4.69629 L 274.02734,170 h -4.30664 l -2.78906,-7.85449 H 253.12988 L 250.34082,170 h -4.36816 z" />
  </g>
</svg>
