<?xml version="1.0" encoding="UTF-8" standalone="no"?>
<svg
   xmlns:dc="http://purl.org/dc/elements/1.1/"
   xmlns:cc="http://creativecommons.org/ns#"
   xmlns:rdf="http://www.w3.org/1999/02/22-rdf-syntax-ns#"
   xmlns:svg="http://www.w3.org/2000/svg"
   xmlns="http://www.w3.org/2000/svg"
   id="svg89"
   stroke-miterlimit="10"
   stroke-linecap="square"
   stroke="none"
   fill="none"
   viewBox="0.0 0.0 348.0 348.0"
   version="1.1">
  <metadata
     id="metadata95">
    <rdf:RDF>
      <cc:Work
         rdf:about="">
        <dc:format>image/svg+xml</dc:format>
        <dc:type
           rdf:resource="http://purl.org/dc/dcmitype/StillImage" />
      </cc:Work>
    </rdf:RDF>
  </metadata>
  <defs
     id="defs93" />
  <clipPath
     id="p.0">
    <path
       id="path2"
       clip-rule="nonzero"
       d="m0 0l348.0 0l0 348.0l-348.0 0l0 -348.0z" />
  </clipPath>
  <g
     id="g59"
     clip-path="url(#p.0)">
    <path
       id="path5"
       fill-rule="nonzero"
       d="M 0,0 H 348 V 348 H 0 Z"
       fill-opacity="0"
       fill="#000000" />
    <path
       id="path7"
       fill-rule="nonzero"
       d="M -6,0 H 342 V 347.9685 H -6 Z"
       fill="#ffffff" />
    <path
       id="path9"
       fill-rule="nonzero"
       d="m 5.07874,5.7758217 h 336.9134 V 343.44512 H 5.07874 Z"
       fill-opacity="0"
       fill="#000000" />
    <path
       id="path11"
       fill-rule="nonzero"
       d="m 5.07874,5.7758217 h 336.9134 V 343.44512 H 5.07874 Z"
       stroke-linecap="butt"
       stroke-linejoin="round"
       stroke-width="2"
       stroke="#000000" />
    <path
       id="path13"
       fill-rule="nonzero"
       d="m 282.73444,40.553925 v 0 c 0,-8.375591 6.96603,-15.165352 15.55905,-15.165352 v 0 c 4.12653,0 8.08402,1.597773 11.00192,4.441828 2.91788,2.844057 4.55713,6.701422 4.55713,10.723524 v 0 c 0,8.375595 -6.966,15.165356 -15.55905,15.165356 v 0 c -8.59302,0 -15.55905,-6.789761 -15.55905,-15.165356 z"
       fill="#ffffff" />
    <path
       id="path15"
       fill-rule="nonzero"
       d="m 282.73444,40.553925 v 0 c 0,-8.375591 6.96603,-15.165352 15.55905,-15.165352 v 0 c 4.12653,0 8.08402,1.597773 11.00192,4.441828 2.91788,2.844057 4.55713,6.701422 4.55713,10.723524 v 0 c 0,8.375595 -6.966,15.165356 -15.55905,15.165356 v 0 c -8.59302,0 -15.55905,-6.789761 -15.55905,-15.165356 z"
       stroke-linecap="butt"
       stroke-linejoin="round"
       stroke-width="2"
       stroke="#000000" />
    <path
       id="path17"
       fill-rule="nonzero"
       d="M 34.771652,25.389738 H 267.18112 v 67.55905 H 34.771652 Z"
       fill="#000000" />
    <path
       id="path19"
       fill-rule="nonzero"
       d="M 34.771652,25.389738 H 267.18112 v 67.55905 H 34.771652 Z"
       stroke-linecap="butt"
       stroke-linejoin="round"
       stroke-width="2"
       stroke="#000000" />
    <path
       id="path21"
       fill-rule="nonzero"
       d="M 34.771652,202.31795 H 141.41733 v 44.81891 H 34.771652 Z"
       stroke-linecap="butt"
       stroke-linejoin="round"
       stroke-width="1"
       stroke="#000000" />
    <path
       id="path23"
       fill-rule="nonzero"
       d="M 34.771652,125.22639 H 141.41733 v 44.8189 H 34.771652 Z"
       fill-opacity="0"
       fill="#000000" />
    <path
       id="path25"
       fill-rule="nonzero"
       d="M 34.771652,125.22639 H 141.41733 v 44.8189 H 34.771652 Z"
       stroke-linecap="butt"
       stroke-linejoin="round"
       stroke-width="1"
       stroke="#000000" />
    <path
       id="path27"
       fill-rule="nonzero"
       d="M 34.771652,270.60397 H 141.41733 v 44.81891 H 34.771652 Z"
       fill-opacity="0"
       fill="#000000" />
    <path
       id="path29"
       fill-rule="nonzero"
       d="M 34.771652,270.60397 H 141.41733 v 44.81891 H 34.771652 Z"
       stroke-linecap="butt"
       stroke-linejoin="round"
       stroke-width="1"
       stroke="#000000" />
    <path
       id="path31"
       fill-rule="nonzero"
       d="m 157.40683,202.31795 h 106.64566 v 44.81891 H 157.40683 Z"
       fill-opacity="0"
       fill="#000000" />
    <path
       id="path33"
       fill-rule="nonzero"
       d="m 157.40683,202.31795 h 106.64566 v 44.81891 H 157.40683 Z"
       stroke-linecap="butt"
       stroke-linejoin="round"
       stroke-width="1"
       stroke="#000000" />
    <path
       id="path35"
       fill-rule="nonzero"
       d="m 157.40683,125.22639 h 106.64566 v 44.8189 H 157.40683 Z"
       fill-opacity="0"
       fill="#000000" />
    <path
       id="path37"
       fill-rule="nonzero"
       d="m 157.40683,125.22639 h 106.64566 v 44.8189 H 157.40683 Z"
       stroke-linecap="butt"
       stroke-linejoin="round"
       stroke-width="1"
       stroke="#000000" />
    <path
       id="path39"
       fill-rule="nonzero"
       d="m 157.40683,270.60397 h 106.64566 v 44.81891 H 157.40683 Z"
       fill-opacity="0"
       fill="#000000" />
    <path
       id="path41"
       fill-rule="nonzero"
       d="m 157.40683,270.60397 h 106.64566 v 44.81891 H 157.40683 Z"
       stroke-linecap="butt"
       stroke-linejoin="round"
       stroke-width="1"
       stroke="#000000" />
    <path
       id="path43"
       fill-rule="nonzero"
       d="m 277.46194,106.3832 h 52.66141 v 209.03937 h -52.66141 z"
       fill="#000000" />
    <path
       id="path45"
       fill-rule="nonzero"
       d="m 277.46194,106.3832 h 52.66141 v 209.03937 h -52.66141 z"
       stroke-linecap="butt"
       stroke-linejoin="round"
       stroke-width="2"
       stroke="#000000" />
    <path
       id="path47"
       fill-rule="nonzero"
       d="m 290.06036,245.11285 h 27.46457 v 16.47244 h -27.46457 z"
       fill="#ffffff" />
    <path
       id="path49"
       fill-rule="nonzero"
       d="m 290.06036,245.11285 h 27.46457 v 16.47244 h -27.46457 z"
       stroke-linecap="butt"
       stroke-linejoin="round"
       stroke-width="2"
       stroke="#000000" />
    <path
       id="path51"
       fill-rule="nonzero"
       d="m 290.06036,208.9029 h 27.46457 v 16.47243 h -27.46457 z"
       fill="#ffffff" />
    <path
       id="path53"
       fill-rule="nonzero"
       d="m 290.06036,208.9029 h 27.46457 v 16.47243 h -27.46457 z"
       stroke-linecap="butt"
       stroke-linejoin="round"
       stroke-width="2"
       stroke="#000000" />
    <path
       id="path55"
       fill-rule="nonzero"
       d="m 290.06036,281.32285 h 27.46457 v 16.47244 h -27.46457 z"
       fill="#ffffff" />
    <path
       id="path57"
       fill-rule="nonzero"
       d="m 290.06036,281.32285 h 27.46457 v 16.47244 h -27.46457 z"
       stroke-linecap="butt"
       stroke-linejoin="round"
       stroke-width="2"
       stroke="#000000" />
  </g>
  <g
     style="font-size:32px;font-family:'DejaVu Sans', sans-serif;text-anchor:middle;fill:#ffffff"
     id="text63"
     aria-label="[ ディスプレー ]">
    <path
       id="path97"
       d="m 34.0625,45.6875 h 6.625 v 2.234375 h -3.75 v 24.0625 h 3.75 v 2.234375 h -6.625 z" />
    <path
       id="path99"
       d="m 69.625,57.5 h -12.5 V 54.75 H 82.75 V 57.5 H 72.5 v 1.625 q 0,7.875 -5.625,13 l -2.5,-1.875 q 5.25,-4.125 5.25,-11.125 z m -8,-7.625 v -2.75 H 77 v 2.75 z m 17,-5.125 q 1.625,1.625 3.5,4.375 l -1.75,1.25 q -1.75,-2.5 -3.5,-4.5 z m 3,-1.625 q 1.625,1.75 3.5,4.25 l -1.75,1.25 q -2,-2.75 -3.5,-4.25 z" />
    <path
       id="path101"
       d="m 104,72.5 h -2.5 V 60.875 Q 98.75,63 93.25,65.75 L 91.5,63.625 Q 103.375,57.875 107.75,51 l 2.125,1.625 q 0.75,0.625 -0.5,0.875 -2.125,2.625 -5.375,5.375 z" />
    <path
       id="path103"
       d="m 136,58.625 q 5.375,4.125 10.625,9.5 l -2.5,2.125 Q 138.875,64.75 134,61 q -4.875,5.25 -11.125,9.375 L 120.5,68.25 q 13.25,-8.625 17,-17.25 l -13.625,0.875 -0.375,-3 14.5,-0.625 1.5,-0.375 2,2 q 0.875,0.875 -0.5,1.125 -2.375,4.125 -5,7.625 z" />
    <path
       id="path105"
       d="m 177.75,48.5 q 1,0 1.625,-0.625 Q 180,47.25 180,46.25 q 0,-1 -0.625,-1.625 Q 178.75,44 177.75,44 q -1,0 -1.625,0.625 -0.625,0.625 -0.625,1.625 0,1 0.625,1.625 0.625,0.625 1.625,0.625 z m 0,1.25 q -1.5,0 -2.5,-1 -1,-1 -1,-2.5 0,-1.5 1,-2.5 1,-1 2.5,-1 1.5,0 2.5,1 1,1 1,2.5 0,1.5 -1,2.5 -1,1 -2.5,1 z m -22.375,1.625 v -2.75 h 18.5 L 177.125,51 Q 176.5,66.125 160,70.75 L 157.75,68 q 15.625,-3.625 16.375,-16.625 z" />
    <path
       id="path107"
       d="M 193,67.125 Q 204.5,65 209.75,55.5 l 2.125,2.125 q -6,10.5 -20,12.875 l -2,-1.5 0.25,-0.75 V 47.5 h 2.75 Q 194,47.625 193,48.375 Z" />
    <path
       id="path109"
       d="M 216,59.75 V 57 h 27.875 v 2.75 z" />
    <path
       id="path111"
       d="m 265.92187,45.6875 v 28.53125 h -6.625 v -2.234375 h 3.73438 v -24.0625 h -3.73438 V 45.6875 Z" />
  </g>
  <g
     style="font-size:20px;font-family:'DejaVu Sans', sans-serif;text-anchor:middle;fill:#000000"
     id="text67"
     aria-label="[ テキスト ]">
    <path
       id="path114"
       d="m 34.539062,138.80469 h 4.140625 v 1.39648 h -2.34375 v 15.03906 h 2.34375 v 1.39649 h -4.140625 z" />
    <path
       id="path116"
       d="m 56.765625,146.1875 h -7.8125 v -1.71875 H 64.96875 v 1.71875 H 58.5625 v 1.01562 q 0,4.92188 -3.515625,8.125 l -1.5625,-1.17187 q 3.28125,-2.57813 3.28125,-6.95313 z m -5,-4.76563 v -1.71875 H 62.15625 v 1.71875 z" />
    <path
       id="path118"
       d="m 85.828125,147.90625 -7.265625,0.78125 1.484375,6.32812 -1.71875,0.39063 -1.484375,-6.48438 -7.96875,0.9375 -0.234375,-1.64062 7.8125,-0.85938 -0.78125,-3.67187 -5.3125,0.625 -0.3125,-1.64063 5.15625,-0.54687 -0.78125,-3.59375 1.640625,-0.3125 q 0.703125,-0.0781 0.234375,0.54687 l 0.625,3.125 5.703125,-0.78125 0.3125,1.64063 -5.546875,0.70312 0.78125,3.67188 7.34375,-0.85938 z" />
    <path
       id="path120"
       d="m 98.25,146.89062 q 3.35938,2.57813 6.64063,5.9375 l -1.5625,1.32813 Q 100.04688,150.71875 97,148.375 q -3.046875,3.28125 -6.953125,5.85937 L 88.5625,152.90625 q 8.28125,-5.39063 10.625,-10.78125 l -8.515625,0.54687 -0.234375,-1.875 9.0625,-0.39062 0.9375,-0.23438 1.25,1.25 q 0.54688,0.54688 -0.3125,0.70313 -1.484375,2.57812 -3.125,4.76562 z" />
    <path
       id="path122"
       d="m 116.375,144.625 q 3.82813,1.09375 7.73438,2.96875 l -0.9375,1.79687 q -4.14063,-2.10937 -6.79688,-2.8125 v 8.125 h -1.79687 v -15.625 h 1.5625 q 0.9375,0.0781 0.23437,0.625 z" />
    <path
       id="path124"
       d="m 139.45117,138.80469 v 17.83203 h -4.14062 v -1.39649 h 2.33398 v -15.03906 h -2.33398 v -1.39648 z" />
  </g>
  <g
     style="font-size:20px;font-family:'DejaVu Sans', sans-serif;text-anchor:middle;fill:#000000"
     id="text71"
     aria-label="[ テキスト ]">
    <path
       id="path127"
       d="m 34.539062,215.80469 h 4.140625 v 1.39648 h -2.34375 v 15.03906 h 2.34375 v 1.39649 h -4.140625 z" />
    <path
       id="path129"
       d="m 56.765625,223.1875 h -7.8125 v -1.71875 H 64.96875 v 1.71875 H 58.5625 v 1.01562 q 0,4.92188 -3.515625,8.125 l -1.5625,-1.17187 q 3.28125,-2.57813 3.28125,-6.95313 z m -5,-4.76563 v -1.71875 H 62.15625 v 1.71875 z" />
    <path
       id="path131"
       d="m 85.828125,224.90625 -7.265625,0.78125 1.484375,6.32812 -1.71875,0.39063 -1.484375,-6.48438 -7.96875,0.9375 -0.234375,-1.64062 7.8125,-0.85938 -0.78125,-3.67187 -5.3125,0.625 -0.3125,-1.64063 5.15625,-0.54687 -0.78125,-3.59375 1.640625,-0.3125 q 0.703125,-0.0781 0.234375,0.54687 l 0.625,3.125 5.703125,-0.78125 0.3125,1.64063 -5.546875,0.70312 0.78125,3.67188 7.34375,-0.85938 z" />
    <path
       id="path133"
       d="m 98.25,223.89062 q 3.35938,2.57813 6.64063,5.9375 l -1.5625,1.32813 Q 100.04688,227.71875 97,225.375 q -3.046875,3.28125 -6.953125,5.85937 L 88.5625,229.90625 q 8.28125,-5.39063 10.625,-10.78125 l -8.515625,0.54687 -0.234375,-1.875 9.0625,-0.39062 0.9375,-0.23438 1.25,1.25 q 0.54688,0.54688 -0.3125,0.70313 -1.484375,2.57812 -3.125,4.76562 z" />
    <path
       id="path135"
       d="m 116.375,221.625 q 3.82813,1.09375 7.73438,2.96875 l -0.9375,1.79687 q -4.14063,-2.10937 -6.79688,-2.8125 v 8.125 h -1.79687 v -15.625 h 1.5625 q 0.9375,0.0781 0.23437,0.625 z" />
    <path
       id="path137"
       d="m 139.45117,215.80469 v 17.83203 h -4.14062 v -1.39649 h 2.33398 v -15.03906 h -2.33398 v -1.39648 z" />
  </g>
  <g
     style="font-size:20px;font-family:'DejaVu Sans', sans-serif;text-anchor:middle;fill:#000000"
     id="text75"
     aria-label="[ テキスト ]">
    <path
       id="path140"
       d="m 34.539062,283.80469 h 4.140625 v 1.39648 h -2.34375 v 15.03906 h 2.34375 v 1.39649 h -4.140625 z" />
    <path
       id="path142"
       d="m 56.765625,291.1875 h -7.8125 v -1.71875 H 64.96875 v 1.71875 H 58.5625 v 1.01562 q 0,4.92188 -3.515625,8.125 l -1.5625,-1.17187 q 3.28125,-2.57813 3.28125,-6.95313 z m -5,-4.76563 v -1.71875 H 62.15625 v 1.71875 z" />
    <path
       id="path144"
       d="m 85.828125,292.90625 -7.265625,0.78125 1.484375,6.32812 -1.71875,0.39063 -1.484375,-6.48438 -7.96875,0.9375 -0.234375,-1.64062 7.8125,-0.85938 -0.78125,-3.67187 -5.3125,0.625 -0.3125,-1.64063 5.15625,-0.54687 -0.78125,-3.59375 1.640625,-0.3125 q 0.703125,-0.0781 0.234375,0.54687 l 0.625,3.125 5.703125,-0.78125 0.3125,1.64063 -5.546875,0.70312 0.78125,3.67188 7.34375,-0.85938 z" />
    <path
       id="path146"
       d="m 98.25,291.89062 q 3.35938,2.57813 6.64063,5.9375 l -1.5625,1.32813 Q 100.04688,295.71875 97,293.375 q -3.046875,3.28125 -6.953125,5.85937 L 88.5625,297.90625 q 8.28125,-5.39063 10.625,-10.78125 l -8.515625,0.54687 -0.234375,-1.875 9.0625,-0.39062 0.9375,-0.23438 1.25,1.25 q 0.54688,0.54688 -0.3125,0.70313 -1.484375,2.57812 -3.125,4.76562 z" />
    <path
       id="path148"
       d="m 116.375,289.625 q 3.82813,1.09375 7.73438,2.96875 l -0.9375,1.79687 q -4.14063,-2.10937 -6.79688,-2.8125 v 8.125 h -1.79687 v -15.625 h 1.5625 q 0.9375,0.0781 0.23437,0.625 z" />
    <path
       id="path150"
       d="m 139.45117,283.80469 v 17.83203 h -4.14062 v -1.39649 h 2.33398 v -15.03906 h -2.33398 v -1.39648 z" />
  </g>
  <g
     style="font-size:20px;font-family:'DejaVu Sans', sans-serif;text-anchor:middle;fill:#000000"
     id="text79"
     aria-label="[ テキスト ]">
    <path
       id="path153"
       d="m 157.53906,138.80469 h 4.14063 v 1.39648 h -2.34375 v 15.03906 h 2.34375 v 1.39649 h -4.14063 z" />
    <path
       id="path155"
       d="m 179.76562,146.1875 h -7.8125 v -1.71875 h 16.01563 v 1.71875 h -6.40625 v 1.01562 q 0,4.92188 -3.51563,8.125 l -1.5625,-1.17187 q 3.28125,-2.57813 3.28125,-6.95313 z m -5,-4.76563 v -1.71875 h 10.39063 v 1.71875 z" />
    <path
       id="path157"
       d="m 208.82812,147.90625 -7.26562,0.78125 1.48437,6.32812 -1.71875,0.39063 -1.48437,-6.48438 -7.96875,0.9375 -0.23438,-1.64062 7.8125,-0.85938 -0.78125,-3.67187 -5.3125,0.625 -0.3125,-1.64063 5.15625,-0.54687 -0.78125,-3.59375 1.64063,-0.3125 q 0.70312,-0.0781 0.23437,0.54687 l 0.625,3.125 5.70313,-0.78125 0.3125,1.64063 -5.54688,0.70312 0.78125,3.67188 7.34375,-0.85938 z" />
    <path
       id="path159"
       d="m 221.25,146.89062 q 3.35937,2.57813 6.64062,5.9375 l -1.5625,1.32813 Q 223.04687,150.71875 220,148.375 q -3.04688,3.28125 -6.95313,5.85937 l -1.48437,-1.32812 q 8.28125,-5.39063 10.625,-10.78125 l -8.51563,0.54687 -0.23437,-1.875 9.0625,-0.39062 0.9375,-0.23438 1.25,1.25 q 0.54687,0.54688 -0.3125,0.70313 -1.48438,2.57812 -3.125,4.76562 z" />
    <path
       id="path161"
       d="m 239.375,144.625 q 3.82812,1.09375 7.73437,2.96875 l -0.9375,1.79687 q -4.14062,-2.10937 -6.79687,-2.8125 v 8.125 h -1.79688 v -15.625 h 1.5625 q 0.9375,0.0781 0.23438,0.625 z" />
    <path
       id="path163"
       d="m 262.45117,138.80469 v 17.83203 h -4.14062 v -1.39649 h 2.33398 v -15.03906 h -2.33398 v -1.39648 z" />
  </g>
  <g
     style="font-size:20px;font-family:'DejaVu Sans', sans-serif;text-anchor:middle;fill:#000000"
     id="text83"
     aria-label="[ テキスト ]">
    <path
       id="path166"
       d="m 157.53906,215.80469 h 4.14063 v 1.39648 h -2.34375 v 15.03906 h 2.34375 v 1.39649 h -4.14063 z" />
    <path
       id="path168"
       d="m 179.76562,223.1875 h -7.8125 v -1.71875 h 16.01563 v 1.71875 h -6.40625 v 1.01562 q 0,4.92188 -3.51563,8.125 l -1.5625,-1.17187 q 3.28125,-2.57813 3.28125,-6.95313 z m -5,-4.76563 v -1.71875 h 10.39063 v 1.71875 z" />
    <path
       id="path170"
       d="m 208.82812,224.90625 -7.26562,0.78125 1.48437,6.32812 -1.71875,0.39063 -1.48437,-6.48438 -7.96875,0.9375 -0.23438,-1.64062 7.8125,-0.85938 -0.78125,-3.67187 -5.3125,0.625 -0.3125,-1.64063 5.15625,-0.54687 -0.78125,-3.59375 1.64063,-0.3125 q 0.70312,-0.0781 0.23437,0.54687 l 0.625,3.125 5.70313,-0.78125 0.3125,1.64063 -5.54688,0.70312 0.78125,3.67188 7.34375,-0.85938 z" />
    <path
       id="path172"
       d="m 221.25,223.89062 q 3.35937,2.57813 6.64062,5.9375 l -1.5625,1.32813 Q 223.04687,227.71875 220,225.375 q -3.04688,3.28125 -6.95313,5.85937 l -1.48437,-1.32812 q 8.28125,-5.39063 10.625,-10.78125 l -8.51563,0.54687 -0.23437,-1.875 9.0625,-0.39062 0.9375,-0.23438 1.25,1.25 q 0.54687,0.54688 -0.3125,0.70313 -1.48438,2.57812 -3.125,4.76562 z" />
    <path
       id="path174"
       d="m 239.375,221.625 q 3.82812,1.09375 7.73437,2.96875 l -0.9375,1.79687 q -4.14062,-2.10937 -6.79687,-2.8125 v 8.125 h -1.79688 v -15.625 h 1.5625 q 0.9375,0.0781 0.23438,0.625 z" />
    <path
       id="path176"
       d="m 262.45117,215.80469 v 17.83203 h -4.14062 v -1.39649 h 2.33398 v -15.03906 h -2.33398 v -1.39648 z" />
  </g>
  <g
     style="font-size:20px;font-family:'DejaVu Sans', sans-serif;text-anchor:middle;fill:#000000"
     id="text87"
     aria-label="[ テキスト ]">
    <path
       id="path179"
       d="m 157.53906,283.80469 h 4.14063 v 1.39648 h -2.34375 v 15.03906 h 2.34375 v 1.39649 h -4.14063 z" />
    <path
       id="path181"
       d="m 179.76562,291.1875 h -7.8125 v -1.71875 h 16.01563 v 1.71875 h -6.40625 v 1.01562 q 0,4.92188 -3.51563,8.125 l -1.5625,-1.17187 q 3.28125,-2.57813 3.28125,-6.95313 z m -5,-4.76563 v -1.71875 h 10.39063 v 1.71875 z" />
    <path
       id="path183"
       d="m 208.82812,292.90625 -7.26562,0.78125 1.48437,6.32812 -1.71875,0.39063 -1.48437,-6.48438 -7.96875,0.9375 -0.23438,-1.64062 7.8125,-0.85938 -0.78125,-3.67187 -5.3125,0.625 -0.3125,-1.64063 5.15625,-0.54687 -0.78125,-3.59375 1.64063,-0.3125 q 0.70312,-0.0781 0.23437,0.54687 l 0.625,3.125 5.70313,-0.78125 0.3125,1.64063 -5.54688,0.70312 0.78125,3.67188 7.34375,-0.85938 z" />
    <path
       id="path185"
       d="m 221.25,291.89062 q 3.35937,2.57813 6.64062,5.9375 l -1.5625,1.32813 Q 223.04687,295.71875 220,293.375 q -3.04688,3.28125 -6.95313,5.85937 l -1.48437,-1.32812 q 8.28125,-5.39063 10.625,-10.78125 l -8.51563,0.54687 -0.23437,-1.875 9.0625,-0.39062 0.9375,-0.23438 1.25,1.25 q 0.54687,0.54688 -0.3125,0.70313 -1.48438,2.57812 -3.125,4.76562 z" />
    <path
       id="path187"
       d="m 239.375,289.625 q 3.82812,1.09375 7.73437,2.96875 l -0.9375,1.79687 q -4.14062,-2.10937 -6.79687,-2.8125 v 8.125 h -1.79688 v -15.625 h 1.5625 q 0.9375,0.0781 0.23438,0.625 z" />
    <path
       id="path189"
       d="m 262.45117,283.80469 v 17.83203 h -4.14062 v -1.39649 h 2.33398 v -15.03906 h -2.33398 v -1.39648 z" />
  </g>
</svg>
