<?xml version="1.0" encoding="UTF-8" standalone="no"?>
<svg
   xmlns:dc="http://purl.org/dc/elements/1.1/"
   xmlns:cc="http://creativecommons.org/ns#"
   xmlns:rdf="http://www.w3.org/1999/02/22-rdf-syntax-ns#"
   xmlns:svg="http://www.w3.org/2000/svg"
   xmlns="http://www.w3.org/2000/svg"
   id="svg97"
   stroke-miterlimit="10"
   stroke-linecap="square"
   stroke="none"
   fill="none"
   viewBox="0.0 0.0 369.0 801.0"
   version="1.1">
  <metadata
     id="metadata103">
    <rdf:RDF>
      <cc:Work
         rdf:about="">
        <dc:format>image/svg+xml</dc:format>
        <dc:type
           rdf:resource="http://purl.org/dc/dcmitype/StillImage" />
      </cc:Work>
    </rdf:RDF>
  </metadata>
  <defs
     id="defs101" />
  <clipPath
     id="p.0">
    <path
       id="path2"
       clip-rule="nonzero"
       d="m0 0l369.0 0l0 801.0l-369.0 0l0 -801.0z" />
  </clipPath>
  <g
     id="g91"
     clip-path="url(#p.0)">
    <path
       id="path5"
       fill-rule="nonzero"
       d="M 0,0 H 369.1076 V 801.916 H 0 Z"
       fill-opacity="0"
       fill="#000000" />
    <path
       id="path7"
       fill-rule="nonzero"
       d="m 248.5753,444.2651 h 101.4803 v 67.55905 H 248.5753 Z"
       fill="#000000" />
    <path
       id="path9"
       fill-rule="nonzero"
       d="m 248.5753,444.2651 h 101.4803 v 67.55905 H 248.5753 Z"
       stroke-linecap="butt"
       stroke-linejoin="round"
       stroke-width="2"
       stroke="#000000" />
    <path
       id="path11"
       fill-rule="nonzero"
       d="m 289.4047,109.25535 h 67.3071 v 208.0315 h -67.3071 z"
       fill="#ffffff" />
    <path
       id="path13"
       fill-rule="nonzero"
       d="m 289.4047,109.25535 h 67.3071 v 208.0315 h -67.3071 z"
       stroke-linecap="butt"
       stroke-linejoin="round"
       stroke-width="2"
       stroke="#000000" />
    <path
       id="path15"
       fill-rule="nonzero"
       d="M 5.589649,165.38321 H 53.306183 V 273.09973 H 5.589649 Z"
       fill="#ffffff" />
    <path
       id="path17"
       fill-rule="nonzero"
       d="M 5.589649,165.38321 H 53.306183 V 273.09973 H 5.589649 Z"
       stroke-linecap="butt"
       stroke-linejoin="round"
       stroke-width="2"
       stroke="#000000" />
    <path
       id="path19"
       fill-rule="nonzero"
       d="m 278.36172,66.32809 h 68.82806 v 0 c 9.01667,0 16.32611,7.042313 16.32611,15.729446 0,8.687134 -7.30944,15.729446 -16.32611,15.729446 h -68.82806 v 0 c -9.01666,0 -16.32614,-7.042313 -16.32614,-15.729446 0,-8.687134 7.30948,-15.729446 16.32614,-15.729446 z"
       fill="#ffffff" />
    <path
       id="path21"
       fill-rule="nonzero"
       d="m 278.36172,66.32809 h 68.82806 v 0 c 9.01667,0 16.32611,7.042313 16.32611,15.729446 0,8.687134 -7.30944,15.729446 -16.32611,15.729446 h -68.82806 v 0 c -9.01666,0 -16.32614,-7.042313 -16.32614,-15.729446 0,-8.687134 7.30948,-15.729446 16.32614,-15.729446 z"
       stroke-linecap="butt"
       stroke-linejoin="round"
       stroke-width="2"
       stroke="#000000" />
    <path
       id="path23"
       fill-rule="nonzero"
       d="m 12.574803,486.2047 h 67.30708 v 208.0315 h -67.30708 z"
       fill="#ffffff" />
    <path
       id="path25"
       fill-rule="nonzero"
       d="m 12.574803,486.2047 h 67.30708 v 208.0315 h -67.30708 z"
       stroke-linecap="butt"
       stroke-linejoin="round"
       stroke-width="2"
       stroke="#000000" />
    <path
       id="path27"
       fill-rule="nonzero"
       d="m 243.86876,46.650917 h 92.15749 V 384.32022 h -92.15749 z"
       fill="#ffffff" />
    <path
       id="path29"
       fill-rule="nonzero"
       d="m 243.86876,46.650917 h 92.15749 V 384.32022 h -92.15749 z"
       stroke-linecap="butt"
       stroke-linejoin="round"
       stroke-width="2"
       stroke="#000000" />
    <path
       id="path31"
       fill-rule="nonzero"
       d="M 22.658957,122.89764 H 101.74557 V 304.53543 H 22.658957 Z"
       fill="#000000" />
    <path
       id="path33"
       fill-rule="nonzero"
       d="M 22.658957,122.89764 H 101.74557 V 304.53543 H 22.658957 Z"
       stroke-linecap="butt"
       stroke-linejoin="round"
       stroke-width="2"
       stroke="#000000" />
    <path
       id="path35"
       fill-rule="nonzero"
       d="m 22.689058,66.32809 h 68.82809 v 0 c 9.016662,0 16.326122,7.042313 16.326122,15.729446 0,8.687134 -7.30946,15.729446 -16.326122,15.729446 h -68.82809 v 0 c -9.016665,0 -16.326115,-7.042313 -16.326115,-15.729446 0,-8.687134 7.309451,-15.729446 16.326115,-15.729446 z"
       fill="#ffffff" />
    <path
       id="path37"
       fill-rule="nonzero"
       d="m 22.689058,66.32809 h 68.82809 v 0 c 9.016662,0 16.326122,7.042313 16.326122,15.729446 0,8.687134 -7.30946,15.729446 -16.326122,15.729446 h -68.82809 v 0 c -9.016665,0 -16.326115,-7.042313 -16.326115,-15.729446 0,-8.687134 7.309451,-15.729446 16.326115,-15.729446 z"
       stroke-linecap="butt"
       stroke-linejoin="round"
       stroke-width="2"
       stroke="#000000" />
    <path
       id="path39"
       fill-rule="nonzero"
       d="m 22.689058,443.84253 h 68.82809 v 0 c 9.016662,0 16.326122,7.0423 16.326122,15.72943 0,8.68713 -7.30946,15.72946 -16.326122,15.72946 h -68.82809 v 0 c -9.016665,0 -16.326115,-7.04233 -16.326115,-15.72946 0,-8.68713 7.309451,-15.72943 16.326115,-15.72943 z"
       fill="#ffffff" />
    <path
       id="path41"
       fill-rule="nonzero"
       d="m 22.689058,443.84253 h 68.82809 v 0 c 9.016662,0 16.326122,7.0423 16.326122,15.72943 0,8.68713 -7.30946,15.72946 -16.326122,15.72946 h -68.82809 v 0 c -9.016665,0 -16.326115,-7.04233 -16.326115,-15.72946 0,-8.68713 7.309451,-15.72943 16.326115,-15.72943 z"
       stroke-linecap="butt"
       stroke-linejoin="round"
       stroke-width="2"
       stroke="#000000" />
    <path
       id="path43"
       fill-rule="nonzero"
       d="M 31.853674,46.650917 H 86.814306 V 384.32022 H 31.853674 Z"
       fill="#ffffff" />
    <path
       id="path45"
       fill-rule="nonzero"
       d="M 31.853674,46.650917 H 86.814306 V 384.32022 H 31.853674 Z"
       stroke-linecap="butt"
       stroke-linejoin="round"
       stroke-width="2"
       stroke="#000000" />
    <path
       id="path47"
       fill-rule="nonzero"
       d="m 278.36368,443.84253 h 68.82809 v 0 c 9.01667,0 16.32611,7.0423 16.32611,15.72943 0,8.68713 -7.30944,15.72946 -16.32611,15.72946 h -68.82809 v 0 c -9.01666,0 -16.32611,-7.04233 -16.32611,-15.72946 0,-8.68713 7.30945,-15.72943 16.32611,-15.72943 z"
       fill="#ffffff" />
    <path
       id="path49"
       fill-rule="nonzero"
       d="m 278.36368,443.84253 h 68.82809 v 0 c 9.01667,0 16.32611,7.0423 16.32611,15.72943 0,8.68713 -7.30944,15.72946 -16.32611,15.72946 h -68.82809 v 0 c -9.01666,0 -16.32611,-7.04233 -16.32611,-15.72946 0,-8.68713 7.30945,-15.72943 16.32611,-15.72943 z"
       stroke-linecap="butt"
       stroke-linejoin="round"
       stroke-width="2"
       stroke="#000000" />
    <path
       id="path51"
       fill-rule="nonzero"
       d="M 251.84662,615.33795 H 358.49228 V 660.1568 H 251.84662 Z"
       fill="#ffffff" />
    <path
       id="path53"
       fill-rule="nonzero"
       d="M 251.84662,615.33795 H 358.49228 V 660.1568 H 251.84662 Z"
       stroke-linecap="butt"
       stroke-linejoin="round"
       stroke-width="2"
       stroke="#000000" />
    <path
       id="path55"
       fill-rule="nonzero"
       d="m 251.84662,544.1022 h 106.64566 v 44.81891 H 251.84662 Z"
       fill="#ffffff" />
    <path
       id="path57"
       fill-rule="nonzero"
       d="m 251.84662,544.1022 h 106.64566 v 44.81891 H 251.84662 Z"
       stroke-linecap="butt"
       stroke-linejoin="round"
       stroke-width="2"
       stroke="#000000" />
    <path
       id="path59"
       fill-rule="nonzero"
       d="m 251.84662,689.47974 h 106.64566 v 44.81891 H 251.84662 Z"
       fill="#ffffff" />
    <path
       id="path61"
       fill-rule="nonzero"
       d="m 251.84662,689.47974 h 106.64566 v 44.81891 H 251.84662 Z"
       stroke-linecap="butt"
       stroke-linejoin="round"
       stroke-width="2"
       stroke="#000000" />
    <path
       id="path63"
       fill-rule="nonzero"
       d="m 6.361959,517.22833 h 24.88189"
       fill-opacity="0"
       fill="#000000" />
    <path
       id="path65"
       fill-rule="nonzero"
       d="m 6.361959,517.22833 h 24.88189"
       stroke-linecap="butt"
       stroke-linejoin="round"
       stroke-width="2"
       stroke="#000000" />
    <path
       id="path67"
       fill-rule="nonzero"
       d="m 6.361959,569.0379 h 24.88189"
       fill-opacity="0"
       fill="#000000" />
    <path
       id="path69"
       fill-rule="nonzero"
       d="m 6.361959,569.0379 h 24.88189"
       stroke-linecap="butt"
       stroke-linejoin="round"
       stroke-width="2"
       stroke="#000000" />
    <path
       id="path71"
       fill-rule="nonzero"
       d="m 6.361959,616.8954 h 24.88189"
       fill-opacity="0"
       fill="#000000" />
    <path
       id="path73"
       fill-rule="nonzero"
       d="m 6.361959,616.8954 h 24.88189"
       stroke-linecap="butt"
       stroke-linejoin="round"
       stroke-width="2"
       stroke="#000000" />
    <path
       id="path75"
       fill-rule="nonzero"
       d="M 6.361959,673.9764 H 31.999753"
       fill-opacity="0"
       fill="#000000" />
    <path
       id="path77"
       fill-rule="nonzero"
       d="M 6.361959,673.9764 H 31.999753"
       stroke-linecap="butt"
       stroke-linejoin="round"
       stroke-width="2"
       stroke="#000000" />
    <path
       id="path79"
       fill-rule="nonzero"
       d="m 31.85023,423.8084 h 304.1575 V 761.47765 H 31.85023 Z"
       fill="#ffffff" />
    <path
       id="path81"
       fill-rule="nonzero"
       d="m 31.85023,423.8084 h 304.1575 V 761.47765 H 31.85023 Z"
       stroke-linecap="butt"
       stroke-linejoin="round"
       stroke-width="2"
       stroke="#000000" />
    <path
       id="path83"
       fill-rule="nonzero"
       d="M 56.01132,0.9422572 H 312.60974 V 800.97376 H 56.01132 Z"
       fill="#ffffff" />
    <path
       id="path85"
       fill-rule="nonzero"
       d="M 56.01132,0.9422572 H 312.60974 V 800.97376 H 56.01132 Z"
       stroke-linecap="butt"
       stroke-linejoin="round"
       stroke-width="2"
       stroke="#000000" />
    <path
       id="path87"
       fill-rule="nonzero"
       d="M 289.4042,31.199474 V 346.85303 H 221.84513 V 31.199474 Z"
       fill-opacity="0"
       fill="#000000" />
    <path
       id="path89"
       fill-rule="nonzero"
       d="M 289.4042,31.199474 V 386.85303 H 221.84513 V 31.199474 Z"
       stroke-linecap="butt"
       stroke-linejoin="round"
       stroke-width="2"
       stroke="#000000" />
  </g>
  <g
     style="font-size:30px;font-family:'DejaVu Sans', sans-serif;text-anchor:middle;fill:#000000"
     id="text95"
     transform="rotate(90)"
     aria-label="[シリアルナンバー]">
    <path
       id="path105"
       d="m 81.859375,-267.79297 h 6.210937 v 2.09473 h -3.515625 v 22.55859 h 3.515625 v 2.09473 h -6.210937 z" />
    <path
       id="path107"
       d="m 97.679687,-246.875 q 12.773443,-2.8125 19.218753,-13.24219 l 2.10937,2.10938 q -5.97656,9.60937 -18.51562,13.59375 -0.35156,1.40625 -1.171878,0.11719 z m -0.820312,-14.17969 q 2.929687,1.52344 5.976565,3.75 l -1.875,2.46094 q -3.515628,-2.57812 -5.859378,-3.75 z m 3.281255,-6.91406 q 3.16406,1.75781 5.97656,3.75 l -1.64063,2.46094 q -3.16406,-2.22656 -5.859373,-3.75 z" />
    <path
       id="path109"
       d="m 143.26562,-255.3125 q 0,8.78906 -8.20312,12.65625 l -2.34375,-1.99219 q 7.73437,-3.51562 7.85156,-10.78125 v -11.71875 h 2.46094 q 1.17187,0.23438 0.23437,0.9375 z m -12.07031,2.57813 H 128.5 v -13.24219 h 2.57812 q 1.17188,0.11719 0.11719,0.9375 z" />
    <path
       id="path111"
       d="m 166.9375,-256.95312 q 0.23437,8.90625 -7.61719,13.82812 l -1.99219,-2.22656 q 6.91407,-3.75 6.91407,-10.54688 v -5.03906 h 2.46093 q 1.05469,0.11719 0.23438,0.82031 v 3.04688 q 4.21875,-3.16406 6.44531,-6.21094 l -19.10156,0.70313 -0.23438,-2.69532 21.32813,-0.58593 0.82031,-0.23438 1.75781,2.10938 q 0.35157,0.46875 -0.58593,0.35156 -3.51563,4.57031 -8.4375,8.55469 z" />
    <path
       id="path113"
       d="m 198.57812,-248.39844 q 5.15625,-1.99218 9.49219,-7.96875 l 1.64063,2.22657 q -4.45313,6.09375 -11.25,8.78906 l -0.9375,0.46875 -1.875,-1.40625 0.23437,-0.58594 v -18.86719 h 2.46094 q 1.05469,0.23438 0.23437,0.9375 z m -15.70312,3.16407 q 5.85937,-5.625 5.85937,-13.94532 v -5.27343 h 2.46094 q 1.05469,0.23437 0.23438,0.9375 v 4.21875 q 0,9.84375 -6.21094,15.58593 z" />
    <path
       id="path115"
       d="m 227.28906,-260.58594 h 10.89844 v 2.57813 h -10.78125 v 2.10937 q 0,8.67188 -7.5,13.125 l -2.46094,-1.875 q 7.26563,-3.75 7.26563,-11.25 v -2.10937 h -11.60157 v -2.57813 h 11.48438 v -7.03125 h 2.34375 q 1.28906,0.11719 0.35156,0.9375 z" />
    <path
       id="path117"
       d="m 268.89062,-258.59375 q -6.21093,12.89063 -20.85937,13.59375 -0.58594,1.52344 -1.17188,0.23438 l -0.9375,-3.04688 q 15.23438,-0.35156 20.50782,-12.53906 z m -16.52343,0 q -3.16407,-2.92969 -5.97657,-4.80469 l 1.99219,-2.46093 q 2.46094,1.52343 6.21094,5.03906 z" />
    <path
       id="path119"
       d="m 291.15625,-263.28125 q 5.85937,7.38281 8.32031,15.58594 l -3.16406,1.05469 q -2.92969,-9.25782 -7.61719,-14.76563 z m -8.90625,2.69531 q 0.9375,0.58594 -0.23438,1.05469 -2.10937,7.38281 -6.79687,13.47656 l -2.69531,-1.75781 q 5.15625,-6.21094 6.91406,-14.0625 z m 14.0625,-9.14062 q 1.52344,1.28906 3.75,3.63281 l -1.52344,1.40625 q -2.10937,-2.34375 -3.75,-3.75 z m -2.8125,1.75781 q 1.75781,1.64063 3.75,3.98438 l -1.75781,1.28906 q -1.75782,-2.34375 -3.63282,-3.98438 z" />
    <path
       id="path121"
       d="m 302.875,-254.60937 v -2.57813 h 26.13281 v 2.57813 z" />
    <path
       id="path123"
       d="m 340.12598,-267.79297 v 26.74805 h -6.21094 v -2.09473 h 3.50098 v -22.55859 h -3.50098 v -2.09473 z" />
  </g>
</svg>
